<?xml version="1.0" encoding="UTF-8" standalone="no"?>
<svg xmlns:rdf="http://www.w3.org/1999/02/22-rdf-syntax-ns#" xmlns="http://www.w3.org/2000/svg" height="36" width="68" version="1.1" xmlns:cc="http://creativecommons.org/ns#" xmlns:dc="http://purl.org/dc/elements/1.1/" viewBox="0 0 68 36">
 <g fill-opacity=".52157" fill="#c7c7c7" transform="translate(-64.526 -1016.2)">
  <path d="m82.639 1041.7q0.79025 0 1.2535-0.109 0.4905-0.109 0.79025-0.4088 0.3815-0.2997 0.57225-0.8992 0.218-0.6268 0.218-1.3898 0-0.8992-0.35425-1.526-0.35425-0.6267-0.981-0.8447-0.46325-0.1635-1.417-0.1635h-5.341v5.341h5.2592zm-5.2592 9.592h-3.8695v-18.176h9.0742q1.199 0 2.0438 0.082 0.84475 0.054 1.4442 0.2452 0.62675 0.1908 1.09 0.5178t0.9265 0.8175q1.635 1.7712 1.635 4.251 0 1.4442-0.545 2.6977-0.51775 1.2535-1.4715 2.0438-0.40875 0.327-0.8175 0.5722-0.3815 0.218-0.872 0.3543-0.46325 0.1362-1.0628 0.1907-0.5995 0.054-1.3625 0.054h-6.213v6.3493z"/>
  <path d="m99.167 1038q0.79025 0 1.3625 0.055 0.5995 0.054 1.0355 0.1908 0.46325 0.109 0.8175 0.327 0.35425 0.1907 0.7085 0.4905 1.3898 1.308 1.3898 4.033v8.175h-3.6515v-8.5838q0-1.0082-0.436-1.417-0.436-0.436-1.4443-0.436h-3.161v10.437h-3.6515v-13.271h7.0305z"/>
  <path d="m107.89 1048h8.284q1.09 0 1.7168-0.109 0.62675-0.109 0.981-0.327 0.89925-0.545 0.89925-1.6622 0-0.6268-0.327-1.1445-0.29975-0.5178-0.84475-0.7903-0.29975-0.1635-0.8175-0.2452-0.4905-0.082-1.1445-0.082h-3.3518q-1.635 0-2.7522-0.2725-1.09-0.2997-1.7985-0.9265-0.8175-0.7085-1.2808-1.744-0.436-1.0627-0.436-2.2345 0-1.7712 0.84475-3.1337 0.872-1.3898 2.3162-1.8803 0.29975-0.109 0.654-0.1907 0.35425-0.082 0.79025-0.109 0.46325-0.055 1.0628-0.055 0.5995-0.027 1.3898-0.027h8.9925v3.2428h-8.1205q-0.654 0-1.0355 0.027-0.35425 0-0.5995 0.027-0.24525 0-0.40875 0.027t-0.3815 0.082q-0.57225 0.1362-0.89925 0.654-0.327 0.4905-0.327 1.199 0 0.6267 0.2725 1.09 0.2725 0.4632 0.763 0.6812 0.40875 0.1908 0.84475 0.2453 0.46325 0.054 1.4442 0.054h2.9158q1.9892 0 3.1882 0.3542 1.199 0.327 1.9892 1.1445 0.62675 0.6268 0.981 1.7168 0.3815 1.09 0.3815 2.2617 0 1.4715-0.62675 2.725t-1.6895 1.9075q-0.327 0.218-0.73575 0.3543-0.40875 0.1362-0.981 0.218-0.545 0.082-1.2808 0.1362-0.73575 0.027-1.744 0.027h-9.1288v-3.2428z"/>
  <path d="m70.341 1025.8q1.8 0 1.8-1.47 0-0.72-0.405-1.035t-1.305-0.315h-3.075v2.82h2.985zm0.075-4.32q0.48 0 0.72-0.045 0.255-0.06 0.465-0.225 0.495-0.405 0.495-1.11 0-0.3-0.12-0.57-0.105-0.285-0.3-0.45-0.21-0.165-0.465-0.225t-0.78-0.06h-3.075v2.685h3.06zm-4.89-4.185h5.175q0.9 0 1.455 0.135 0.57 0.135 0.975 0.45 0.435 0.345 0.675 0.87 0.255 0.51 0.255 1.14 0 0.81-0.39 1.425-0.39 0.6-1.125 0.915 1.59 0.6 1.59 2.31 0 0.81-0.345 1.425-0.33 0.615-0.96 0.945-0.72 0.39-2.415 0.39h-4.89v-10.005z"/>
  <path d="m75.72 1027.3v-10.005h1.695v10.005h-1.695z"/>
  <path d="m84.196 1020h1.695v7.305h-3.525q-0.54 0-0.915-0.03-0.375-0.045-0.66-0.135-0.27-0.09-0.48-0.24-0.21-0.165-0.405-0.405-0.3-0.375-0.435-0.855-0.135-0.495-0.135-1.245v-4.395h1.695v4.455q0 0.855 0.315 1.185t1.11 0.33h1.74v-5.97z"/>
  <path d="m93.562 1024.3h-4.32q0.03 0.48 0.135 0.795 0.12 0.3 0.39 0.54 0.255 0.21 0.585 0.3 0.33 0.075 0.945 0.075h2.265v1.335h-2.58q-0.51 0-0.9-0.045t-0.705-0.15q-0.315-0.12-0.57-0.285-0.255-0.18-0.495-0.435-0.39-0.435-0.645-1.125-0.24-0.69-0.24-1.41 0-0.945 0.3-1.755 0.315-0.825 0.84-1.305 0.465-0.42 1.065-0.6 0.6-0.195 1.5-0.195h2.43v1.335h-2.235q-1.035 0-1.5 0.345-0.45 0.345-0.57 1.245h4.305v1.335z"/>
  <path d="m106.57 1027.3h-3.27q-0.66 0-1.185-0.06t-0.945-0.18q-0.42-0.135-0.765-0.33-0.33-0.21-0.615-0.495-0.63-0.63-0.975-1.635-0.33-1.005-0.33-2.25 0-1.545 0.525-2.73 0.525-1.2 1.455-1.74 0.48-0.3 1.2-0.435 0.72-0.15 1.62-0.15h3.285v1.5h-3.12q-0.9 0-1.44 0.195-0.525 0.18-0.87 0.6-0.3 0.405-0.48 1.125-0.18 0.705-0.18 1.575 0 1.005 0.24 1.77 0.24 0.75 0.675 1.14 0.345 0.33 0.84 0.465t1.32 0.135h3.015v1.5z"/>
  <path d="m110.69 1024.2q-0.345 0-0.51 0.015-0.15 0.015-0.285 0.075-0.48 0.195-0.48 0.825 0 0.48 0.285 0.675 0.3 0.195 0.99 0.195h2.385v-1.785h-2.385zm2.385-1.335q0-0.48-0.045-0.69-0.03-0.21-0.165-0.405-0.165-0.24-0.465-0.33-0.285-0.09-0.915-0.09h-3.42v-1.335h3.585q0.57 0 0.975 0.045 0.405 0.03 0.69 0.12 0.3 0.075 0.51 0.225 0.21 0.135 0.39 0.345 0.315 0.375 0.435 0.84t0.12 1.335v4.395h-3.93q-0.555 0-0.93-0.015t-0.63-0.06q-0.255-0.06-0.45-0.135-0.18-0.09-0.36-0.225-0.795-0.615-0.795-1.755 0-0.705 0.3-1.245 0.315-0.54 0.84-0.78 0.495-0.24 1.725-0.24h2.535z"/>
  <path d="m117.28 1017.3h1.695v2.7h2.025v1.335h-2.025v3.3q0 0.435 0.045 0.69t0.165 0.405q0.135 0.15 0.36 0.195 0.24 0.045 0.63 0.045h0.825v1.335h-1.44q-0.69 0-1.065-0.105-0.36-0.105-0.66-0.375-0.3-0.3-0.435-0.735-0.12-0.435-0.12-1.23v-3.525h-1.335v-1.335h1.335v-2.7z"/>
  <path d="m122.15 1021.3v-4.02h1.125v4.02h-1.125z"/>
  <path d="m131.18 1021.3h-3.405q-0.555 0-0.765 0.03t-0.345 0.12q-0.27 0.21-0.27 0.69 0 0.255 0.06 0.42 0.06 0.15 0.21 0.24t0.42 0.12 0.69 0.03h1.08q0.405 0 0.705 0.015 0.315 0.015 0.54 0.06t0.39 0.12 0.315 0.18q0.33 0.24 0.51 0.69 0.18 0.435 0.18 0.99 0 0.72-0.3 1.29-0.285 0.57-0.78 0.78-0.24 0.12-0.6 0.165-0.36 0.03-1.095 0.03h-3.99v-1.335h3.54q0.465 0 0.72-0.015t0.39-0.06q0.405-0.105 0.405-0.705 0-0.615-0.42-0.75-0.105-0.03-0.315-0.045-0.195-0.015-0.63-0.015h-0.885q-0.48 0-0.81-0.015-0.33-0.03-0.57-0.075t-0.42-0.12q-0.165-0.09-0.33-0.225-0.345-0.3-0.555-0.78-0.21-0.495-0.21-1.035 0-0.585 0.24-1.08 0.255-0.495 0.69-0.75 0.285-0.165 0.66-0.225 0.375-0.075 1.005-0.075h3.945v1.335z"/>
 </g>
</svg>
