<?xml version="1.0" encoding="UTF-8" standalone="no"?>
<svg xmlns:rdf="http://www.w3.org/1999/02/22-rdf-syntax-ns#" xmlns="http://www.w3.org/2000/svg" xml:space="preserve" height="3504" width="48" version="1.1" y="0px" x="0px" xmlns:cc="http://creativecommons.org/ns#" xmlns:dc="http://purl.org/dc/elements/1.1/"><style type="text/css">
	.st0{fill:#0D212D;}
	.st1{fill:#44B5FF;}
</style><path d="m34.6 3446.5l-2.3-3.2c6.2-4.6 7.6-13.3 3.1-19.6s-13.3-7.6-19.6-3.1c-6.2 4.6-7.6 13.3-3.1 19.6 0.9 1.2 1.9 2.2 3.1 3.1l-2.4 3.2c-8-5.9-9.8-17.1-3.9-25.1s17.1-9.8 25.1-3.9 9.8 17.1 3.9 25.1c-1.1 1.5-2.4 2.8-3.9 3.9zm0-48l-2.3-3.2c6.2-4.6 7.6-13.3 3.1-19.6s-13.3-7.6-19.6-3.1c-6.2 4.6-7.6 13.3-3.1 19.6 0.9 1.2 1.9 2.2 3.1 3.1l-2.4 3.2c-8-5.9-9.8-17.1-3.9-25.1s17.1-9.8 25.1-3.9 9.8 17.1 3.9 25.1c-1.1 1.5-2.4 2.8-3.9 3.9zm0-48l-2.3-3.2c6.2-4.6 7.6-13.3 3.1-19.6s-13.3-7.6-19.6-3.1c-6.2 4.6-7.6 13.3-3.1 19.6 0.9 1.2 1.9 2.2 3.1 3.1l-2.4 3.2c-8-5.9-9.8-17.1-3.9-25.1s17.1-9.8 25.1-3.9 9.8 17.1 3.9 25.1c-1.1 1.5-2.4 2.8-3.9 3.9zm0-48l-2.3-3.2c6.2-4.6 7.6-13.3 3.1-19.6s-13.3-7.6-19.6-3.1c-6.2 4.6-7.6 13.3-3.1 19.6 0.9 1.2 1.9 2.2 3.1 3.1l-2.4 3.2c-8-5.9-9.8-17.1-3.9-25.1s17.1-9.8 25.1-3.9 9.8 17.1 3.9 25.1c-1.1 1.5-2.4 2.8-3.9 3.9zm0-48l-2.3-3.2c6.2-4.6 7.6-13.3 3.1-19.6s-13.3-7.6-19.6-3.1c-6.2 4.6-7.6 13.3-3.1 19.6 0.9 1.2 1.9 2.2 3.1 3.1l-2.4 3.2c-8-5.9-9.8-17.1-3.9-25.1s17.1-9.8 25.1-3.9 9.8 17.1 3.9 25.1c-1.1 1.5-2.4 2.8-3.9 3.9zm0-48l-2.3-3.2c6.2-4.6 7.6-13.3 3.1-19.6s-13.3-7.6-19.6-3.1c-6.2 4.6-7.6 13.3-3.1 19.6 0.9 1.2 1.9 2.2 3.1 3.1l-2.4 3.2c-8-5.9-9.8-17.1-3.9-25.1s17.1-9.8 25.1-3.9 9.8 17.1 3.9 25.1c-1.1 1.5-2.4 2.8-3.9 3.9zm0-48l-2.3-3.2c6.2-4.6 7.6-13.3 3.1-19.6s-13.3-7.6-19.6-3.1c-6.2 4.6-7.6 13.3-3.1 19.6 0.9 1.2 1.9 2.2 3.1 3.1l-2.4 3.2c-8-5.9-9.8-17.1-3.9-25.1s17.1-9.8 25.1-3.9 9.8 17.1 3.9 25.1c-1.1 1.5-2.4 2.8-3.9 3.9zm0-48l-2.3-3.2c6.2-4.6 7.6-13.3 3.1-19.6s-13.3-7.6-19.6-3.1c-6.2 4.6-7.6 13.3-3.1 19.6 0.9 1.2 1.9 2.2 3.1 3.1l-2.4 3.2c-8-5.9-9.8-17.1-3.9-25.1s17.1-9.8 25.1-3.9 9.8 17.1 3.9 25.1c-1.1 1.5-2.4 2.8-3.9 3.9zm0-48l-2.3-3.2c6.2-4.6 7.6-13.3 3.1-19.6s-13.3-7.6-19.6-3.1c-6.2 4.6-7.6 13.3-3.1 19.6 0.9 1.2 1.9 2.2 3.1 3.1l-2.4 3.2c-8-5.9-9.8-17.1-3.9-25.1s17.1-9.8 25.1-3.9 9.8 17.1 3.9 25.1c-1.1 1.5-2.4 2.8-3.9 3.9zm0-48l-2.3-3.2c6.2-4.6 7.6-13.3 3.1-19.6s-13.3-7.6-19.6-3.1c-6.2 4.6-7.6 13.3-3.1 19.6 0.9 1.2 1.9 2.2 3.1 3.1l-2.4 3.2c-8-5.9-9.8-17.1-3.9-25.1s17.1-9.8 25.1-3.9 9.8 17.1 3.9 25.1c-1.1 1.5-2.4 2.8-3.9 3.9zm0-48l-2.3-3.2c6.2-4.6 7.6-13.3 3.1-19.6s-13.3-7.6-19.6-3.1c-6.2 4.6-7.6 13.3-3.1 19.6 0.9 1.2 1.9 2.2 3.1 3.1l-2.4 3.2c-8-5.9-9.8-17.1-3.9-25.1s17.1-9.8 25.1-3.9 9.8 17.1 3.9 25.1c-1.1 1.5-2.4 2.8-3.9 3.9zm0-48l-2.3-3.2c6.2-4.6 7.6-13.3 3.1-19.6s-13.3-7.6-19.6-3.1c-6.2 4.6-7.6 13.3-3.1 19.6 0.9 1.2 1.9 2.2 3.1 3.1l-2.4 3.2c-8-5.9-9.8-17.1-3.9-25.1s17.1-9.8 25.1-3.9 9.8 17.1 3.9 25.1c-1.1 1.5-2.4 2.8-3.9 3.9zm0-48l-2.3-3.2c6.2-4.6 7.6-13.3 3.1-19.6s-13.3-7.6-19.6-3.1c-6.2 4.6-7.6 13.3-3.1 19.6 0.9 1.2 1.9 2.2 3.1 3.1l-2.4 3.2c-8-5.9-9.8-17.1-3.9-25.1s17.1-9.8 25.1-3.9 9.8 17.1 3.9 25.1c-1.1 1.5-2.4 2.8-3.9 3.9zm0-48l-2.3-3.2c6.2-4.6 7.6-13.3 3.1-19.6s-13.3-7.6-19.6-3.1c-6.2 4.6-7.6 13.3-3.1 19.6 0.9 1.2 1.9 2.2 3.1 3.1l-2.4 3.2c-8-5.9-9.8-17.1-3.9-25.1s17.1-9.8 25.1-3.9 9.8 17.1 3.9 25.1c-1.1 1.5-2.4 2.8-3.9 3.9zm0-48l-2.3-3.2c6.2-4.6 7.6-13.3 3.1-19.6s-13.3-7.6-19.6-3.1c-6.2 4.6-7.6 13.3-3.1 19.6 0.9 1.2 1.9 2.2 3.1 3.1l-2.4 3.2c-8-5.9-9.8-17.1-3.9-25.1s17.1-9.8 25.1-3.9 9.8 17.1 3.9 25.1c-1.1 1.5-2.4 2.8-3.9 3.9zm0-48l-2.3-3.2c6.2-4.6 7.6-13.3 3.1-19.6s-13.3-7.6-19.6-3.1c-6.2 4.6-7.6 13.3-3.1 19.6 0.9 1.2 1.9 2.2 3.1 3.1l-2.4 3.2c-8-5.9-9.8-17.1-3.9-25.1s17.1-9.8 25.1-3.9 9.8 17.1 3.9 25.1c-1.1 1.5-2.4 2.8-3.9 3.9zm0-48l-2.3-3.2c6.2-4.6 7.6-13.3 3.1-19.6s-13.3-7.6-19.6-3.1c-6.2 4.6-7.6 13.3-3.1 19.6 0.9 1.2 1.9 2.2 3.1 3.1l-2.4 3.2c-8-5.9-9.8-17.1-3.9-25.1s17.1-9.8 25.1-3.9 9.8 17.1 3.9 25.1c-1.1 1.5-2.4 2.8-3.9 3.9zm0-48l-2.3-3.2c6.2-4.6 7.6-13.3 3.1-19.6s-13.3-7.6-19.6-3.1c-6.2 4.6-7.6 13.3-3.1 19.6 0.9 1.2 1.9 2.2 3.1 3.1l-2.4 3.2c-8-5.9-9.8-17.1-3.9-25.1s17.1-9.8 25.1-3.9 9.8 17.1 3.9 25.1c-1.1 1.5-2.4 2.8-3.9 3.9zm0-48l-2.3-3.2c6.2-4.6 7.6-13.3 3.1-19.6s-13.3-7.6-19.6-3.1c-6.2 4.6-7.6 13.3-3.1 19.6 0.9 1.2 1.9 2.2 3.1 3.1l-2.4 3.2c-8-5.9-9.8-17.1-3.9-25.1s17.1-9.8 25.1-3.9 9.8 17.1 3.9 25.1c-1.1 1.5-2.4 2.8-3.9 3.9zm0-48l-2.3-3.2c6.2-4.6 7.6-13.3 3.1-19.6s-13.3-7.6-19.6-3.1c-6.2 4.6-7.6 13.3-3.1 19.6 0.9 1.2 1.9 2.2 3.1 3.1l-2.4 3.2c-8-5.9-9.8-17.1-3.9-25.1s17.1-9.8 25.1-3.9 9.8 17.1 3.9 25.1c-1.1 1.5-2.4 2.8-3.9 3.9zm0-48l-2.3-3.2c6.2-4.6 7.6-13.3 3.1-19.6s-13.3-7.6-19.6-3.1c-6.2 4.6-7.6 13.3-3.1 19.6 0.9 1.2 1.9 2.2 3.1 3.1l-2.4 3.2c-8-5.9-9.8-17.1-3.9-25.1s17.1-9.8 25.1-3.9 9.8 17.1 3.9 25.1c-1.1 1.5-2.4 2.8-3.9 3.9zm0-48l-2.3-3.2c6.2-4.6 7.6-13.3 3.1-19.6s-13.3-7.6-19.6-3.1c-6.2 4.6-7.6 13.3-3.1 19.6 0.9 1.2 1.9 2.2 3.1 3.1l-2.4 3.2c-8-5.9-9.8-17.1-3.9-25.1s17.1-9.8 25.1-3.9 9.8 17.1 3.9 25.1c-1.1 1.5-2.4 2.8-3.9 3.9zm0-48l-2.3-3.2c6.2-4.6 7.6-13.3 3.1-19.6s-13.3-7.6-19.6-3.1c-6.2 4.6-7.6 13.3-3.1 19.6 0.9 1.2 1.9 2.2 3.1 3.1l-2.4 3.2c-8-5.9-9.8-17.1-3.9-25.1s17.1-9.8 25.1-3.9 9.8 17.1 3.9 25.1c-1.1 1.5-2.4 2.8-3.9 3.9zm0-48l-2.3-3.2c6.2-4.6 7.6-13.3 3.1-19.6s-13.3-7.6-19.6-3.1c-6.2 4.6-7.6 13.3-3.1 19.6 0.9 1.2 1.9 2.2 3.1 3.1l-2.4 3.2c-8-5.9-9.8-17.1-3.9-25.1s17.1-9.8 25.1-3.9 9.8 17.1 3.9 25.1c-1.1 1.5-2.4 2.8-3.9 3.9zm0-48l-2.3-3.2c6.2-4.6 7.6-13.3 3.1-19.6s-13.3-7.6-19.6-3.1c-6.2 4.6-7.6 13.3-3.1 19.6 0.9 1.2 1.9 2.2 3.1 3.1l-2.4 3.2c-8-5.9-9.8-17.1-3.9-25.1s17.1-9.8 25.1-3.9 9.8 17.1 3.9 25.1c-1.1 1.5-2.4 2.8-3.9 3.9zm0-48l-2.3-3.2c6.2-4.6 7.6-13.3 3.1-19.6s-13.3-7.6-19.6-3.1c-6.2 4.6-7.6 13.3-3.1 19.6 0.9 1.2 1.9 2.2 3.1 3.1l-2.4 3.2c-8-5.9-9.8-17.1-3.9-25.1s17.1-9.8 25.1-3.9 9.8 17.1 3.9 25.1c-1.1 1.5-2.4 2.8-3.9 3.9zm0-48l-2.3-3.2c6.2-4.6 7.6-13.3 3.1-19.6s-13.3-7.6-19.6-3.1c-6.2 4.6-7.6 13.3-3.1 19.6 0.9 1.2 1.9 2.2 3.1 3.1l-2.4 3.2c-8-5.9-9.8-17.1-3.9-25.1s17.1-9.8 25.1-3.9 9.8 17.1 3.9 25.1c-1.1 1.5-2.4 2.8-3.9 3.9zm0-48l-2.3-3.2c6.2-4.6 7.6-13.3 3.1-19.6s-13.3-7.6-19.6-3.1c-6.2 4.6-7.6 13.3-3.1 19.6 0.9 1.2 1.9 2.2 3.1 3.1l-2.4 3.2c-8-5.9-9.8-17.1-3.9-25.1s17.1-9.8 25.1-3.9 9.8 17.1 3.9 25.1c-1.1 1.5-2.4 2.8-3.9 3.9zm0-48l-2.3-3.2c6.2-4.6 7.6-13.3 3.1-19.6s-13.3-7.6-19.6-3.1c-6.2 4.6-7.6 13.3-3.1 19.6 0.9 1.2 1.9 2.2 3.1 3.1l-2.4 3.2c-8-5.9-9.8-17.1-3.9-25.1s17.1-9.8 25.1-3.9 9.8 17.1 3.9 25.1c-1.1 1.5-2.4 2.8-3.9 3.9zm0-48l-2.3-3.2c6.2-4.6 7.6-13.3 3.1-19.6-4.6-6.2-13.3-7.6-19.6-3.1-6.2 4.6-7.6 13.3-3.1 19.6 0.9 1.2 1.9 2.2 3.1 3.1l-2.4 3.2c-8-5.9-9.8-17.1-3.9-25.1s17.1-9.8 25.1-3.9 9.8 17.1 3.9 25.1c-1.1 1.5-2.4 2.8-3.9 3.9zm0-48l-2.3-3.2c6.2-4.6 7.6-13.3 3.1-19.6-4.6-6.2-13.3-7.6-19.6-3.1-6.2 4.6-7.6 13.3-3.1 19.6 0.9 1.2 1.9 2.2 3.1 3.1l-2.4 3.2c-8-5.9-9.8-17.1-3.9-25.1s17.1-9.8 25.1-3.9 9.8 17.1 3.9 25.1c-1.1 1.5-2.4 2.8-3.9 3.9zm0-48l-2.3-3.2c6.2-4.6 7.6-13.3 3.1-19.6-4.6-6.2-13.3-7.6-19.6-3.1-6.2 4.6-7.6 13.3-3.1 19.6 0.9 1.2 1.9 2.2 3.1 3.1l-2.4 3.2c-8-5.9-9.8-17.1-3.9-25.1s17.1-9.8 25.1-3.9 9.8 17.1 3.9 25.1c-1.1 1.5-2.4 2.8-3.9 3.9zm0-48l-2.3-3.2c6.2-4.6 7.6-13.3 3.1-19.6-4.6-6.2-13.3-7.6-19.6-3.1-6.2 4.6-7.6 13.3-3.1 19.6 0.9 1.2 1.9 2.2 3.1 3.1l-2.4 3.2c-8-5.9-9.8-17.1-3.9-25.1s17.1-9.8 25.1-3.9 9.8 17.1 3.9 25.1c-1.1 1.5-2.4 2.8-3.9 3.9zm0-48l-2.3-3.2c6.2-4.6 7.6-13.3 3.1-19.6-4.6-6.2-13.3-7.6-19.6-3.1-6.2 4.6-7.6 13.3-3.1 19.6 0.9 1.2 1.9 2.2 3.1 3.1l-2.4 3.2c-8-5.9-9.8-17.1-3.9-25.1s17.1-9.8 25.1-3.9 9.8 17.1 3.9 25.1c-1.1 1.5-2.4 2.8-3.9 3.9zm0-48l-2.3-3.2c6.2-4.6 7.6-13.3 3.1-19.6-4.6-6.2-13.3-7.6-19.6-3.1-6.2 4.6-7.6 13.3-3.1 19.6 0.9 1.2 1.9 2.2 3.1 3.1l-2.4 3.2c-8-5.9-9.8-17.1-3.9-25.1s17.1-9.8 25.1-3.9 9.8 17.1 3.9 25.1c-1.1 1.5-2.4 2.8-3.9 3.9zm0-48l-2.3-3.2c6.2-4.6 7.6-13.3 3.1-19.6-4.6-6.2-13.3-7.6-19.6-3.1-6.2 4.6-7.6 13.3-3.1 19.6 0.9 1.2 1.9 2.2 3.1 3.1l-2.4 3.2c-8-5.9-9.8-17.1-3.9-25.1s17.1-9.8 25.1-3.9 9.8 17.1 3.9 25.1c-1.1 1.5-2.4 2.8-3.9 3.9zm0-48l-2.3-3.2c6.2-4.6 7.6-13.3 3.1-19.6-4.6-6.2-13.3-7.6-19.6-3.1-6.2 4.6-7.6 13.3-3.1 19.6 0.9 1.2 1.9 2.2 3.1 3.1l-2.4 3.2c-8-5.9-9.8-17.1-3.9-25.1s17.1-9.8 25.1-3.9 9.8 17.1 3.9 25.1c-1.1 1.5-2.4 2.8-3.9 3.9zm0-48l-2.3-3.2c6.2-4.6 7.6-13.3 3.1-19.6-4.6-6.2-13.3-7.6-19.6-3.1-6.2 4.6-7.6 13.3-3.1 19.6 0.9 1.2 1.9 2.2 3.1 3.1l-2.4 3.2c-8-5.9-9.8-17.1-3.9-25.1s17.1-9.8 25.1-3.9 9.8 17.1 3.9 25.1c-1.1 1.5-2.4 2.8-3.9 3.9zm0-48l-2.3-3.2c6.2-4.6 7.6-13.3 3.1-19.6-4.6-6.2-13.3-7.6-19.6-3.1-6.2 4.6-7.6 13.3-3.1 19.6 0.9 1.2 1.9 2.2 3.1 3.1l-2.4 3.2c-8-5.9-9.8-17.1-3.9-25.1s17.1-9.8 25.1-3.9 9.8 17.1 3.9 25.1c-1.1 1.5-2.4 2.8-3.9 3.9zm0-48l-2.3-3.2c6.2-4.6 7.6-13.3 3.1-19.6-4.6-6.2-13.3-7.6-19.6-3.1-6.2 4.6-7.6 13.3-3.1 19.6 0.9 1.2 1.9 2.2 3.1 3.1l-2.4 3.2c-8-5.9-9.8-17.1-3.9-25.1s17.1-9.8 25.1-3.9 9.8 17.1 3.9 25.1c-1.1 1.5-2.4 2.8-3.9 3.9zm0-48l-2.3-3.2c6.2-4.6 7.6-13.3 3.1-19.6-4.6-6.2-13.3-7.6-19.6-3.1-6.2 4.6-7.6 13.3-3.1 19.6 0.9 1.2 1.9 2.2 3.1 3.1l-2.4 3.2c-8-5.9-9.8-17.1-3.9-25.1s17.1-9.8 25.1-3.9 9.8 17.1 3.9 25.1c-1.1 1.5-2.4 2.8-3.9 3.9zm0-48l-2.3-3.2c6.2-4.6 7.6-13.3 3.1-19.6-4.6-6.2-13.3-7.6-19.6-3.1-6.2 4.6-7.6 13.3-3.1 19.6 0.9 1.2 1.9 2.2 3.1 3.1l-2.4 3.2c-8-5.9-9.8-17.1-3.9-25.1s17.1-9.8 25.1-3.9 9.8 17.1 3.9 25.1c-1.1 1.5-2.4 2.8-3.9 3.9zm0-48l-2.3-3.2c6.2-4.6 7.6-13.3 3.1-19.6-4.6-6.2-13.3-7.6-19.6-3.1-6.2 4.6-7.6 13.3-3.1 19.6 0.9 1.2 1.9 2.2 3.1 3.1l-2.4 3.2c-8-5.9-9.8-17.1-3.9-25.1s17.1-9.8 25.1-3.9 9.8 17.1 3.9 25.1c-1.1 1.5-2.4 2.8-3.9 3.9zm0-48l-2.3-3.2c6.2-4.6 7.6-13.3 3.1-19.6-4.6-6.2-13.3-7.6-19.6-3.1-6.2 4.6-7.6 13.3-3.1 19.6 0.9 1.2 1.9 2.2 3.1 3.1l-2.4 3.2c-8-5.9-9.8-17.1-3.9-25.1s17.1-9.8 25.1-3.9 9.8 17.1 3.9 25.1c-1.1 1.5-2.4 2.8-3.9 3.9zm0-48l-2.3-3.2c6.2-4.6 7.6-13.3 3.1-19.6-4.6-6.2-13.3-7.6-19.6-3.1-6.2 4.6-7.6 13.3-3.1 19.6 0.9 1.2 1.9 2.2 3.1 3.1l-2.4 3.2c-8-5.9-9.8-17.1-3.9-25.1s17.1-9.8 25.1-3.9 9.8 17.1 3.9 25.1c-1.1 1.5-2.4 2.8-3.9 3.9zm0-48l-2.3-3.2c6.2-4.6 7.6-13.3 3.1-19.6-4.6-6.2-13.3-7.6-19.6-3.1-6.2 4.6-7.6 13.3-3.1 19.6 0.9 1.2 1.9 2.2 3.1 3.1l-2.4 3.2c-8-5.9-9.8-17.1-3.9-25.1s17.1-9.8 25.1-3.9 9.8 17.1 3.9 25.1c-1.1 1.5-2.4 2.8-3.9 3.9zm0-48l-2.3-3.2c6.2-4.6 7.6-13.3 3.1-19.6-4.6-6.2-13.3-7.6-19.6-3.1-6.2 4.6-7.6 13.3-3.1 19.6 0.9 1.2 1.9 2.2 3.1 3.1l-2.4 3.2c-8-5.9-9.8-17.1-3.9-25.1s17.1-9.8 25.1-3.9 9.8 17.1 3.9 25.1c-1.1 1.5-2.4 2.8-3.9 3.9zm0-48l-2.3-3.2c6.2-4.6 7.6-13.3 3.1-19.6-4.6-6.2-13.3-7.6-19.6-3.1-6.2 4.6-7.6 13.3-3.1 19.6 0.9 1.2 1.9 2.2 3.1 3.1l-2.4 3.2c-8-5.9-9.8-17.1-3.9-25.1s17.1-9.8 25.1-3.9 9.8 17.1 3.9 25.1c-1.1 1.5-2.4 2.8-3.9 3.9zm0-48l-2.3-3.2c6.2-4.6 7.6-13.3 3.1-19.6-4.6-6.2-13.3-7.6-19.6-3.1-6.2 4.6-7.6 13.3-3.1 19.6 0.9 1.2 1.9 2.2 3.1 3.1l-2.4 3.2c-8-5.9-9.8-17.1-3.9-25.1s17.1-9.8 25.1-3.9 9.8 17.1 3.9 25.1c-1.1 1.5-2.4 2.8-3.9 3.9zm0-48l-2.3-3.2c6.2-4.6 7.6-13.3 3.1-19.6-4.6-6.2-13.3-7.6-19.6-3.1-6.2 4.6-7.6 13.3-3.1 19.6 0.9 1.2 1.9 2.2 3.1 3.1l-2.4 3.2c-8-5.9-9.8-17.1-3.9-25.1s17.1-9.8 25.1-3.9 9.8 17.1 3.9 25.1c-1.1 1.5-2.4 2.8-3.9 3.9zm0-48l-2.3-3.2c6.2-4.6 7.6-13.3 3.1-19.6-4.6-6.2-13.3-7.6-19.6-3.1-6.2 4.6-7.6 13.3-3.1 19.6 0.9 1.2 1.9 2.2 3.1 3.1l-2.4 3.2c-8-5.9-9.8-17.1-3.9-25.1s17.1-9.8 25.1-3.9 9.8 17.1 3.9 25.1c-1.1 1.5-2.4 2.8-3.9 3.9zm0-48l-2.3-3.2c6.2-4.6 7.6-13.3 3.1-19.6s-13.3-7.6-19.6-3.1-7.6 13.3-3.1 19.6c0.9 1.2 1.9 2.2 3.1 3.1l-2.4 3.2c-8-5.9-9.8-17.1-3.9-25.2s17.1-9.8 25.2-3.9c8 5.9 9.8 17.1 3.9 25.2-1.2 1.5-2.5 2.8-4 3.9zm0-48l-2.3-3.2c6.2-4.6 7.6-13.3 3.1-19.6s-13.3-7.6-19.6-3.1-7.6 13.3-3.1 19.6c0.9 1.2 1.9 2.2 3.1 3.1l-2.4 3.2c-8-5.9-9.8-17.1-3.9-25.2s17.1-9.8 25.2-3.9c8 5.9 9.8 17.1 3.9 25.2-1.2 1.5-2.5 2.8-4 3.9zm0-48l-2.3-3.2c6.2-4.6 7.6-13.3 3.1-19.6s-13.3-7.6-19.6-3.1-7.6 13.3-3.1 19.6c0.9 1.2 1.9 2.2 3.1 3.1l-2.4 3.2c-8-5.9-9.8-17.1-3.9-25.2s17.1-9.8 25.2-3.9c8 5.9 9.8 17.1 3.9 25.2-1.2 1.5-2.5 2.8-4 3.9zm0-48l-2.3-3.2c6.2-4.6 7.6-13.3 3.1-19.6s-13.3-7.6-19.6-3.1-7.6 13.3-3.1 19.6c0.9 1.2 1.9 2.2 3.1 3.1l-2.4 3.2c-8-5.9-9.8-17.1-3.9-25.2s17.1-9.8 25.2-3.9c8 5.9 9.8 17.1 3.9 25.2-1.2 1.5-2.5 2.8-4 3.9zm0-48l-2.3-3.2c6.2-4.6 7.6-13.3 3.1-19.6s-13.3-7.6-19.6-3.1-7.6 13.3-3.1 19.6c0.9 1.2 1.9 2.2 3.1 3.1l-2.4 3.2c-8-5.9-9.8-17.1-3.9-25.2s17.1-9.8 25.2-3.9c8 5.9 9.8 17.1 3.9 25.2-1.2 1.5-2.5 2.8-4 3.9zm0-48l-2.3-3.2c6.2-4.6 7.6-13.3 3.1-19.6s-13.3-7.6-19.6-3.1-7.6 13.3-3.1 19.6c0.9 1.2 1.9 2.2 3.1 3.1l-2.4 3.2c-8-5.9-9.8-17.1-3.9-25.2s17.1-9.8 25.2-3.9c8 5.9 9.8 17.1 3.9 25.2-1.2 1.5-2.5 2.8-4 3.9zm0-48l-2.3-3.2c6.2-4.6 7.6-13.3 3.1-19.6s-13.3-7.6-19.6-3.1-7.6 13.3-3.1 19.6c0.9 1.2 1.9 2.2 3.1 3.1l-2.4 3.2c-8-5.9-9.8-17.1-3.9-25.2s17.1-9.8 25.2-3.9c8 5.9 9.8 17.1 3.9 25.2-1.2 1.5-2.5 2.8-4 3.9zm0-48l-2.3-3.2c6.2-4.6 7.6-13.3 3.1-19.6s-13.3-7.6-19.6-3.1-7.6 13.3-3.1 19.6c0.9 1.2 1.9 2.2 3.1 3.1l-2.4 3.2c-8-5.9-9.8-17.1-3.9-25.2s17.1-9.8 25.2-3.9c8 5.9 9.8 17.1 3.9 25.2-1.2 1.5-2.5 2.8-4 3.9zm0-48l-2.3-3.2c6.2-4.6 7.6-13.3 3.1-19.6s-13.3-7.6-19.6-3.1-7.6 13.3-3.1 19.6c0.9 1.2 1.9 2.2 3.1 3.1l-2.4 3.2c-8-5.9-9.8-17.1-3.9-25.2s17.1-9.8 25.2-3.9c8 5.9 9.8 17.1 3.9 25.2-1.2 1.5-2.5 2.8-4 3.9zm0-48l-2.3-3.2c6.2-4.6 7.6-13.3 3.1-19.6s-13.3-7.6-19.6-3.1-7.6 13.3-3.1 19.6c0.9 1.2 1.9 2.2 3.1 3.1l-2.4 3.2c-8-5.9-9.8-17.1-3.9-25.2s17.1-9.8 25.2-3.9c8 5.9 9.8 17.1 3.9 25.2-1.2 1.5-2.5 2.8-4 3.9zm0-48l-2.3-3.2c6.2-4.6 7.6-13.3 3.1-19.6-4.6-6.2-13.3-7.6-19.6-3.1s-7.6 13.3-3.1 19.6c0.9 1.2 1.9 2.2 3.1 3.1l-2.4 3.2c-8-5.9-9.8-17.1-3.9-25.2s17.1-9.8 25.2-3.9 9.8 17.1 3.9 25.2c-1.2 1.5-2.5 2.8-4 3.9zm0-48l-2.3-3.2c6.2-4.6 7.6-13.3 3.1-19.6-4.6-6.2-13.3-7.6-19.6-3.1s-7.6 13.3-3.1 19.6c0.9 1.2 1.9 2.2 3.1 3.1l-2.4 3.2c-8-5.9-9.8-17.1-3.9-25.2 5.9-8 17.1-9.8 25.2-3.9 8 5.9 9.8 17.1 3.9 25.2-1.2 1.5-2.5 2.8-4 3.9zm0-48l-2.3-3.2c6.2-4.6 7.6-13.3 3.1-19.6-4.6-6.2-13.3-7.6-19.6-3.1s-7.6 13.3-3.1 19.6c0.9 1.2 1.9 2.2 3.1 3.1l-2.4 3.2c-8-5.9-9.8-17.1-3.9-25.2 5.9-8 17.1-9.8 25.2-3.9 8 5.9 9.8 17.1 3.9 25.2-1.2 1.5-2.5 2.8-4 3.9zm0-48l-2.3-3.2c6.2-4.6 7.6-13.3 3.1-19.6-4.6-6.2-13.3-7.6-19.6-3.1s-7.6 13.3-3.1 19.6c0.9 1.2 1.9 2.2 3.1 3.1l-2.4 3.2c-8-5.9-9.8-17.1-3.9-25.2 5.9-8 17.1-9.8 25.2-3.9 8 5.9 9.8 17.1 3.9 25.2-1.2 1.5-2.5 2.8-4 3.9zm0-48l-2.3-3.2c6.2-4.6 7.6-13.3 3.1-19.6-4.6-6.2-13.3-7.6-19.6-3.1s-7.6 13.3-3.1 19.6c0.9 1.2 1.9 2.2 3.1 3.1l-2.4 3.2c-8-5.9-9.8-17.1-3.9-25.2 5.9-8 17.1-9.8 25.2-3.9 8 5.9 9.8 17.1 3.9 25.2-1.2 1.5-2.5 2.8-4 3.9zm0-48l-2.3-3.2c6.2-4.6 7.6-13.3 3.1-19.6-4.6-6.2-13.3-7.6-19.6-3.1-6.2 4.6-7.6 13.3-3.1 19.6 0.9 1.2 1.9 2.2 3.1 3.1l-2.4 3.2c-8-5.9-9.8-17.1-3.9-25.2 5.9-8 17.1-9.8 25.2-3.9 8 5.9 9.8 17.1 3.9 25.2-1.2 1.5-2.5 2.8-4 3.9zm0-48l-2.3-3.2c6.2-4.6 7.6-13.3 3.1-19.6-4.6-6.2-13.3-7.6-19.6-3.1s-7.6 13.3-3.1 19.6c0.9 1.2 1.9 2.2 3.1 3.1l-2.4 3.2c-8-5.9-9.8-17.1-3.9-25.2s17.1-9.8 25.2-3.9c8 5.9 9.8 17.1 3.9 25.2-1.2 1.5-2.5 2.8-4 3.9zm0-48l-2.3-3.2c6.2-4.6 7.6-13.3 3.1-19.6-4.6-6.2-13.3-7.6-19.6-3.1s-7.6 13.3-3.1 19.6c0.9 1.2 1.9 2.2 3.1 3.1l-2.4 3.2c-8-5.9-9.8-17.1-3.9-25.2s17.1-9.8 25.2-3.9c8 5.9 9.8 17.1 3.9 25.2-1.2 1.5-2.5 2.8-4 3.9zm0-48l-2.3-3.2c6.2-4.6 7.6-13.3 3.1-19.6s-13.3-7.6-19.6-3.1c-6.2 4.6-7.6 13.3-3.1 19.6 0.9 1.2 1.9 2.2 3.1 3.1l-2.4 3.2c-8-5.9-9.8-17.1-3.9-25.2s17.1-9.8 25.2-3.9c8 5.9 9.8 17.1 3.9 25.2-1.2 1.5-2.5 2.8-4 3.9zm0-48l-2.3-3.2c6.2-4.6 7.6-13.3 3.1-19.6s-13.4-7.6-19.7-3-7.6 13.3-3 19.5c0.9 1.2 1.9 2.2 3.1 3.1l-2.3 3.2c-8-5.9-9.8-17.1-3.9-25.1s17.1-9.8 25.1-3.9 9.8 17.1 3.9 25.1c-1.2 1.5-2.5 2.8-4 3.9zm0-48l-2.3-3.2c6.2-4.6 7.6-13.3 3.1-19.6s-13.4-7.6-19.7-3-7.6 13.3-3 19.5c0.9 1.2 1.9 2.2 3.1 3.1l-2.3 3.2c-8-5.9-9.8-17.1-3.9-25.1s17.1-9.8 25.1-3.9 9.8 17.1 3.9 25.1c-1.2 1.5-2.5 2.8-4 3.9zm-10.6 3423.5c9.9 0 18 8 18 18 0 5.8-2.7 11.2-7.4 14.6l-2.3-3.2c6.2-4.6 7.6-13.3 3.1-19.6s-13.3-7.6-19.6-3.1c-6.2 4.6-7.6 13.3-3.1 19.6 0.9 1.2 1.9 2.2 3.1 3.1l-2.4 3.2c-8-5.8-9.8-17.1-3.9-25.1 3.3-4.8 8.7-7.5 14.5-7.5z" fill="#0D212D"/><path d="m35.6 3445.8l-2.6-3.1c5.9-5 6.7-13.8 1.7-19.7-2.7-3.2-6.6-5-10.7-5-0.7 0-1.3 0.1-2 0.2v-4c0.7-0.1 1.3-0.1 2-0.1 9.9 0 18 8 18 18 0 5.2-2.4 10.3-6.4 13.7zm0.9-48.9l-2.8-2.9c5.6-5.4 5.7-14.2 0.4-19.8-2.6-2.7-6.3-4.3-10.1-4.3-0.7 0-1.3 0.1-2 0.2v-4c0.7-0.1 1.3-0.1 2-0.1 9.9 0 18 8 18 18 0 4.9-2 9.5-5.5 12.9zm0.9-48.9l-3-2.7c5.2-5.7 4.7-14.6-1-19.8-2.6-2.3-5.9-3.6-9.4-3.6-0.7 0-1.3 0.1-2 0.2v-4c0.7-0.1 1.3-0.1 2-0.1 9.9 0 18 8 18 18 0 4.4-1.6 8.7-4.6 12zm0.8-48.9l-3.1-2.5c4.8-6.1 3.7-14.9-2.4-19.6-2.5-1.9-5.5-3-8.6-3-0.7 0-1.3 0.1-2 0.2v-4c0.7-0.1 1.3-0.1 2-0.1 9.9 0 18 8 18 18-0.1 3.9-1.4 7.8-3.9 11zm0.7-49l-3.3-2.2c4.3-6.4 2.6-15.1-3.8-19.4-2.3-1.6-5-2.4-7.8-2.4-0.7 0-1.3 0.1-2 0.2v-4c0.7-0.1 1.3-0.1 2-0.1 9.9 0 18 8.1 18 18 0 3.4-1.1 6.9-3.1 9.9zm0.7-49.1l-3.5-2c3.9-6.7 1.6-15.2-5.1-19.1-2.1-1.2-4.6-1.9-7-1.9-0.7 0-1.3 0.1-2 0.2v-4c0.7-0.1 1.3-0.1 2-0.1 9.9 0 18 8 18 18 0 3-0.8 6.1-2.4 8.9zm0.6-49.1l-3.6-1.8c3.4-6.9 0.5-15.3-6.4-18.7-1.9-0.9-4-1.4-6.2-1.4-0.7 0-1.3 0.1-2 0.2v-4c0.7-0.1 1.3-0.1 2-0.1 9.9 0 18 8 18 17.9 0 2.7-0.6 5.4-1.8 7.9zm0.5-49.2l-3.7-1.5c2.9-7.2-0.5-15.3-7.7-18.2-1.7-0.7-3.5-1-5.3-1-0.7 0-1.3 0.1-2 0.2v-4c0.7-0.1 1.3-0.1 2-0.1 9.9 0 18 8 18 18 0 2.2-0.4 4.5-1.3 6.6zm0.4-49.1l-3.8-1.2c2.4-7.3-1.6-15.2-9-17.6-1.4-0.5-2.9-0.7-4.4-0.7-0.7 0-1.3 0.1-2 0.2v-4c0.7-0.1 1.3-0.1 2-0.1 9.9 0 18 8 18 18 0.1 1.7-0.2 3.6-0.8 5.4zm0.3-49.2l-3.9-1c1.9-7.5-2.6-15.1-10.1-17-1.1-0.3-2.3-0.4-3.5-0.4-0.7 0-1.3 0.1-2 0.2v-4c0.7-0.1 1.3-0.1 2-0.1 9.9 0 18 8 18 17.9 0.1 1.4-0.1 2.9-0.5 4.4zm0.3-49.3l-3.9-0.7c1.4-7.6-3.6-14.8-11.2-16.2-0.8-0.2-1.7-0.2-2.6-0.2-0.7 0-1.3 0.1-2 0.2v-4c0.7-0.1 1.3-0.1 2-0.1 9.9 0 18 7.9 18 17.8 0 1-0.1 2.1-0.3 3.2zm0.2-49.2l-4-0.4c0.8-7.7-4.8-14.6-12.4-15.4-0.5-0.1-1-0.1-1.5-0.1-0.7 0-1.3 0.1-2 0.2v-4c0.7-0.1 1.3-0.1 2-0.1 9.9 0 18 8 18 18 0 0.5 0 1.2-0.1 1.8zm-3.9-49.4v-0.5c0-7.7-6.3-14-14-14-0.7 0-1.3 0.1-2 0.2v-4c0.7-0.1 1.3-0.1 2-0.1 9.9 0 18 8.1 18 18v0.6l-4-0.2zm-14-62.5c-0.7 0-1.3 0.1-2 0.2v-4c0.7-0.1 1.3-0.1 2-0.1 9.7 0 17.6 7.7 18 17.4l-4 0.1c-0.3-7.6-6.5-13.6-14-13.6zm0-48c-0.7 0-1.3 0.1-2 0.2v-4c0.7-0.1 1.3-0.1 2-0.1 9.2 0 16.9 7 17.9 16.1l-4 0.4c-0.7-7.2-6.7-12.6-13.9-12.6zm0-48c-0.7 0-1.3 0.1-2 0.2v-4c0.7-0.1 1.3-0.1 2-0.1 8.7 0 16.2 6.3 17.7 14.9l-3.9 0.7c-1.2-6.8-7-11.7-13.8-11.7zm0-48c-0.7 0-1.3 0.1-2 0.2v-4c0.7-0.1 1.3-0.1 2-0.1 8.3 0 15.5 5.6 17.5 13.6l-3.9 1c-1.6-6.3-7.2-10.7-13.6-10.7zm0-48c-0.7 0-1.3 0.1-2 0.2v-4c0.7-0.1 1.3-0.1 2-0.1 7.8 0 14.7 5 17.1 12.4l-3.8 1.2c-1.9-5.8-7.2-9.7-13.3-9.7zm0-48c-0.7 0-1.3 0.1-2 0.2v-4c0.7-0.1 1.3-0.1 2-0.1 7.3 0 13.9 4.5 16.7 11.3l-3.7 1.5c-2.2-5.4-7.3-8.9-13-8.9zm0-48c-0.7 0-1.3 0.1-2 0.2v-4c0.7-0.1 1.3-0.1 2-0.1 6.9 0 13.2 3.9 16.2 10.1l-3.6 1.8c-2.4-4.9-7.2-8-12.6-8zm0-48c-0.7 0-1.3 0.1-2 0.2v-4c0.7-0.1 1.3-0.1 2-0.1 6.4 0 12.4 3.4 15.6 9l-3.5 2c-2.5-4.4-7.1-7.1-12.1-7.1zm0-48c-0.7 0-1.3 0.1-2 0.2v-4c0.7-0.1 1.3-0.1 2-0.1 6 0 11.6 3 14.9 7.9l-3.3 2.2c-2.6-3.9-6.9-6.2-11.6-6.2zm0-48c-0.7 0-1.3 0.1-2 0.2v-4c0.7-0.1 1.3-0.1 2-0.1 5.5 0 10.8 2.6 14.2 6.9l-3.1 2.5c-2.7-3.5-6.8-5.5-11.1-5.5zm0-48c-0.7 0-1.3 0.1-2 0.2v-4c0.7-0.1 1.3-0.1 2-0.1 5.1 0 10 2.2 13.4 6l-3 2.7c-2.7-3.1-6.4-4.8-10.4-4.8zm0-48c-0.7 0-1.3 0.1-2 0.2v-4c0.7-0.1 1.3-0.1 2-0.1 4.7 0 9.2 1.8 12.5 5.1l-2.8 2.9c-2.6-2.7-6.1-4.1-9.7-4.1zm0-48c-0.7 0-1.3 0.1-2 0.2v-4c0.7-0.1 1.3-0.1 2-0.1 4.2 0 8.3 1.5 11.6 4.2l-2.6 3.1c-2.5-2.2-5.7-3.4-9-3.4zm0-48c-0.7 0-1.3 0.1-2 0.2v-4c0.7-0.1 1.3-0.1 2-0.1 3.8 0 7.5 1.2 10.6 3.4l-2.3 3.2c-2.5-1.8-5.3-2.7-8.3-2.7zm0-48c-0.7 0-1.3 0.1-2 0.2v-4c0.7-0.1 1.3-0.1 2-0.1 3.4 0 6.7 1 9.5 2.8l-2.1 3.4c-2.2-1.6-4.8-2.3-7.4-2.3zm0-48c-0.7 0-1.3 0.1-2 0.2v-4c0.7-0.1 1.3-0.1 2-0.1 2.9 0 5.8 0.7 8.5 2.1l-1.9 3.5c-2.1-1.1-4.3-1.7-6.6-1.7zm0-48c-0.7 0-1.3 0.1-2 0.2v-4c0.7-0.1 1.3-0.1 2-0.1 2.5 0 5 0.5 7.3 1.6l-1.6 3.7c-1.8-1-3.7-1.4-5.7-1.4zm0-48c-0.7 0-1.3 0.1-2 0.2v-4c0.7-0.1 1.3-0.1 2-0.1 2.1 0 4.2 0.4 6.2 1.1l-1.4 3.8c-1.5-0.7-3.2-1-4.8-1zm0-48c-0.7 0-1.3 0.1-2 0.2v-4c0.7-0.1 1.3-0.1 2-0.1 1.7 0 3.3 0.2 5 0.7l-1.1 3.8c-1.3-0.4-2.6-0.6-3.9-0.6zm0-48c-0.7 0-1.3 0.1-2 0.2v-4c0.7-0.1 1.3-0.1 2-0.1 1.3 0 2.5 0.1 3.7 0.4l-0.8 3.9c-0.9-0.3-1.9-0.4-2.9-0.4zm0-48c-0.7 0-1.3 0.1-2 0.2v-4c0.7-0.1 1.3-0.1 2-0.1 0.8 0 1.7 0.1 2.5 0.2l-0.6 4c-0.6-0.2-1.2-0.3-1.9-0.3zm-2-95.8v-4c1.3-0.2 2.7-0.2 4 0v4c-1.3-0.3-2.7-0.3-4 0zm1-48.1l-0.3-4c0.4 0 0.8-0.1 1.3-0.1 0.7 0 1.3 0 2 0.1v4c-0.7-0.1-1.3-0.2-2-0.2-0.3 0.1-0.7 0.1-1 0.2zm-0.9-47.9l-0.6-4c0.8-0.1 1.7-0.2 2.5-0.2 0.7 0 1.3 0 2 0.1v4c-0.7-0.1-1.3-0.2-2-0.2-0.7 0.1-1.3 0.2-1.9 0.3zm-1-47.9l-0.8-3.9c1.2-0.3 2.5-0.4 3.7-0.4 0.7 0 1.3 0 2 0.1v4c-0.7-0.1-1.3-0.2-2-0.2-1 0.1-2 0.2-2.9 0.4zm-1-47.7l-1.1-3.8c1.6-0.5 3.3-0.7 5-0.7 0.7 0 1.3 0 2 0.1v4c-0.7-0.1-1.3-0.2-2-0.2-1.3 0-2.6 0.2-3.9 0.6zm-0.9-47.7l-1.4-3.8c2-0.7 4.1-1.1 6.2-1.1 0.7 0 1.3 0 2 0.1v4c-0.7-0.1-1.3-0.2-2-0.2-1.6 0.1-3.3 0.4-4.8 1zm-0.9-47.7l-1.6-3.7c2.3-1 4.8-1.6 7.3-1.6 0.7 0 1.3 0 2 0.1v4c-0.7-0.1-1.3-0.2-2-0.2-2 0.2-3.9 0.6-5.7 1.4zm-0.9-47.6l-1.9-3.5c2.6-1.4 5.5-2.1 8.5-2.1 0.7 0 1.3 0 2 0.1v4c-0.7-0.1-1.3-0.2-2-0.2-2.3 0.1-4.6 0.7-6.6 1.7zm-0.8-47.5l-2.1-3.4c2.9-1.8 6.2-2.7 9.5-2.8 0.7 0 1.3 0 2 0.1v4c-0.7-0.1-1.3-0.2-2-0.2-2.6 0.2-5.2 0.9-7.4 2.3zm-0.8-47.4l-2.3-3.2c3.1-2.2 6.8-3.5 10.6-3.5 0.7 0 1.3 0 2 0.1v4c-0.7-0.1-1.3-0.2-2-0.2-3.1 0.1-5.9 1-8.3 2.8zm-0.8-47.4l-2.6-3.1c3.2-2.7 7.3-4.2 11.6-4.2 0.7 0 1.3 0 2 0.1v4c-0.7-0.1-1.3-0.2-2-0.2-3.3 0.1-6.5 1.3-9 3.4zm-0.7-47.4l-2.8-2.9c3.3-3.3 7.8-5.1 12.5-5.1 0.7 0 1.3 0 2 0.1v4c-0.7-0.1-1.3-0.2-2-0.2-3.6 0.2-7.1 1.6-9.7 4.1zm-0.7-47.3l-3-2.7c3.4-3.8 8.3-6 13.4-6 0.7 0 1.3 0 2 0.1v4c-0.7-0.1-1.3-0.2-2-0.2-4 0.2-7.7 1.9-10.4 4.8zm-0.6-47.2l-3.1-2.5c3.4-4.4 8.6-6.9 14.2-6.9 0.7 0 1.3 0 2 0.1v4c-0.7-0.1-1.3-0.2-2-0.2-4.4 0.1-8.5 2.1-11.1 5.5zm-0.6-47.2l-3.3-2.2c3.3-5 8.9-7.9 14.9-7.9 0.7 0 1.3 0 2 0.1v4c-0.7-0.1-1.3-0.2-2-0.2-4.7 0-9 2.3-11.6 6.2zm-0.5-47.2l-3.5-2c3.2-5.6 9.1-9 15.6-9 0.7 0 1.3 0 2 0.1v4c-0.7-0.1-1.3-0.2-2-0.2-5 0.1-9.6 2.8-12.1 7.1zm-0.5-47.1l-3.6-1.8c3.3-6.9 10.6-10.9 18.2-10v4c-6-0.9-11.9 2.3-14.6 7.8zm-0.4-47.1l-3.7-1.5c3-7.5 10.7-12.1 18.7-11.1v4c-6.4-1-12.6 2.5-15 8.6zm-0.3-47.1l-3.8-1.2c2.6-8.1 10.6-13.3 19.1-12.3v4c-6.8-1.1-13.2 3-15.3 9.5zm-0.3-47.1l-3.9-1c2.2-8.8 10.5-14.6 19.4-13.5v4c-7-1-13.8 3.5-15.5 10.5zm-0.2-47l-3.9-0.7c1.6-9.4 10.3-15.8 19.7-14.8v4c-7.5-1.1-14.5 4-15.8 11.5zm-0.1-47.1l-4-0.4c1-9.9 9.8-17 19.7-16h0.2v4c-7.6-1.2-14.7 4.1-15.8 11.6-0.1 0.3-0.1 0.6-0.1 0.8zm-0.1-47l-4-0.1c0.3-9.9 8.6-17.7 18.5-17.4 0.5 0 1 0.1 1.5 0.1v4c-7.6-1.2-14.7 4-15.8 11.6-0.1 0.7-0.2 1.2-0.2 1.8zm0-47.5v0.5l-4 0.1v-0.6c0-9.9 8-18 17.9-18 0.7 0 1.4 0 2.1 0.1v4c-7.6-1.2-14.7 4.1-15.8 11.6-0.2 0.8-0.2 1.6-0.2 2.3zm0-48c0 0.5 0 1 0.1 1.5l-4 0.4c-0.1-0.6-0.1-1.3-0.1-1.9 0-9.9 8-18 17.9-18 0.7 0 1.4 0 2.1 0.1v4c-7.6-1.2-14.7 4.1-15.8 11.6-0.2 0.8-0.2 1.6-0.2 2.3zm0-48c0 0.8 0.1 1.6 0.2 2.4l-3.9 0.7c-1.8-9.8 4.7-19.1 14.5-20.8 1.7-0.3 3.5-0.4 5.2-0.2v4c-7.6-1.2-14.7 4.1-15.8 11.6-0.2 0.8-0.2 1.6-0.2 2.3zm0-48c0 1.1 0.1 2.3 0.4 3.4l-3.9 1c-2.4-9.6 3.4-19.4 13-21.8 2.1-0.5 4.3-0.7 6.4-0.4v4c-7.6-1.2-14.7 4.1-15.8 11.6-0.1 0.7-0.1 1.5-0.1 2.2zm0-48c0 1.5 0.2 2.9 0.7 4.3l-3.8 1.2c-3.1-9.4 2-19.6 11.5-22.7 2.5-0.8 5.1-1.1 7.6-0.8v4c-7.6-1.2-14.7 4.1-15.8 11.6-0.2 0.9-0.2 1.7-0.2 2.4zm0-48c0 1.8 0.3 3.6 1 5.2l-3.7 1.5c-3.7-9.2 0.7-19.7 9.9-23.4 2.8-1.1 5.8-1.6 8.8-1.2v4c-7.6-1.2-14.7 4.1-15.8 11.6-0.2 0.8-0.2 1.6-0.2 2.3zm0-48c0 2.1 0.5 4.2 1.4 6.1l-3.6 1.8c-4.4-8.9-0.7-19.7 8.2-24 2.5-1.2 5.2-1.8 7.9-1.8 0.7 0 1.3 0 2 0.1v4c-7.6-1.2-14.7 4.1-15.8 11.6-0.1 0.7-0.1 1.5-0.1 2.2zm0-48c0 2.5 0.6 4.9 1.9 7l-3.5 2c-5-8.6-2.1-19.6 6.5-24.6 2.7-1.6 5.9-2.4 9-2.4 0.7 0 1.3 0 2 0.1v4c-7.6-1.2-14.7 4.1-15.8 11.6-0.1 0.8-0.1 1.6-0.1 2.3zm0-48c0 2.8 0.8 5.5 2.4 7.8l-3.3 2.2c-5.6-8.2-3.4-19.4 4.8-25 3.6-2.4 7.9-3.5 12.1-3v4c-7.6-1.2-14.7 4.1-15.8 11.6-0.2 0.9-0.2 1.7-0.2 2.4zm0-48c0 3.1 1 6.2 3 8.6l-3.1 2.5c-6.1-7.8-4.8-19.1 3.1-25.2 3.2-2.5 7.1-3.8 11.1-3.8 0.7 0 1.3 0 2 0.1v4c-7.6-1.2-14.7 4.1-15.8 11.6-0.3 0.7-0.3 1.5-0.3 2.2zm0-48c0 3.5 1.3 6.8 3.6 9.4l-3 2.7c-6.7-7.4-6.1-18.7 1.3-25.4 3.8-3.5 9-5.1 14.1-4.5v4c-7.6-1.2-14.7 4.1-15.8 11.6-0.2 0.7-0.2 1.5-0.2 2.2zm0-48c0 3.8 1.5 7.4 4.3 10.1l-2.8 2.9c-7.2-6.9-7.4-18.3-0.5-25.4 3.9-4 9.4-6 15-5.4v4c-7.6-1.2-14.7 4.1-15.8 11.6-0.2 0.7-0.2 1.5-0.2 2.2zm0-48c0 4.1 1.8 8.1 5 10.7l-2.6 3.1c-7.6-6.4-8.6-17.8-2.2-25.4 3.4-4 8.5-6.4 13.8-6.4 0.7 0 1.3 0 2 0.1v4c-7.6-1.2-14.7 4.1-15.8 11.6-0.2 0.8-0.2 1.6-0.2 2.3zm0-48c0 4.5 2.1 8.7 5.7 11.3l-2.3 3.2c-8-5.8-9.8-17.1-3.9-25.1 3.3-4.7 8.7-7.4 14.5-7.4 0.7 0 1.3 0 2 0.1v4c-7.6-1.1-14.7 4.1-15.8 11.7-0.2 0.7-0.2 1.5-0.2 2.2zm15.3 1758.1l-0.3 4c-0.3 0-0.6-0.1-1-0.1-0.7 0-1.3 0.1-2 0.2v-4c0.7-0.1 1.3-0.1 2-0.1 0.4-0.1 0.8-0.1 1.3 0zm16.7 1697.9c0 5.7-2.8 11.1-7.4 14.5l-2.3-3.2c6.2-4.6 7.6-13.3 3.1-19.5-2.6-3.6-6.8-5.8-11.3-5.7-0.7 0-1.3 0.1-2 0.2v-4c0.7-0.1 1.3-0.1 2-0.1 9.8-0.2 17.9 7.9 17.9 17.8z" fill="#44B5FF"/><path fill="#44b5ff" d="m28.4 2810.4c-1.3 2.4-4.4 3.3-6.8 1.9-2.4-1.3-3.3-4.4-1.9-6.8 1.3-2.4 4.4-3.3 6.8-1.9 0.7 0.4 1.3 1 1.7 1.6l9.8 2.3zm-3.9-45.4c-2.7 0.3-5.2-1.7-5.5-4.5s1.7-5.2 4.5-5.5c1.7-0.2 3.4 0.6 4.5 1.9l9.9 1.6-9.4 3.6c-0.7 1.6-2.2 2.7-4 2.9zm0.4-48.1c-2.7 0.5-5.3-1.3-5.8-4.1-0.5-2.7 1.3-5.3 4.1-5.8 1.7-0.3 3.5 0.3 4.6 1.6l10 0.9-9.1 4.2c-0.7 1.7-2.1 2.9-3.8 3.2zm3.9-51.4c-0.8 2.6-3.6 4.1-6.3 3.3-2.6-0.8-4.1-3.6-3.3-6.3 0.8-2.6 3.6-4.1 6.3-3.3 0.8 0.2 1.5 0.7 2 1.2l10.1 0.2zm-3.3-44.7c-2.6 0.8-5.4-0.6-6.3-3.2-0.8-2.6 0.6-5.4 3.2-6.3 1.7-0.5 3.5-0.2 4.8 1l10-0.5-8.4 5.5c-0.3 1.5-1.6 2.9-3.3 3.5zm0.4-48.2c-2.6 1-5.5-0.2-6.5-2.8s0.2-5.5 2.8-6.5c1.6-0.6 3.5-0.4 4.9 0.6l10-1.2-8 6c-0.4 1.8-1.6 3.3-3.2 3.9zm0.3-48.1c-2.5 1.2-5.5 0.2-6.7-2.3s-0.2-5.5 2.3-6.7c1.6-0.8 3.4-0.7 4.9 0.3l9.9-1.9-7.6 6.6c-0.2 1.7-1.2 3.2-2.8 4zm0.3-48.2c-2.4 1.4-5.4 0.6-6.8-1.8s-0.6-5.4 1.8-6.8c1.5-0.9 3.4-0.9 4.9-0.1l9.7-2.6-7.1 7.1c0 1.8-1 3.4-2.5 4.2zm0.3-48.2c-2.3 1.5-5.4 0.9-6.9-1.4s-0.9-5.4 1.4-6.9c1.4-1 3.3-1.1 4.9-0.4l9.5-3.3-6.6 7.6c0 1.8-0.9 3.5-2.3 4.4zm0.3-48.2c-2.2 1.7-5.3 1.3-7-0.9s-1.3-5.3 0.9-7c1.4-1.1 3.2-1.3 4.8-0.7l9.3-3.9-6.1 8c0.2 1.7-0.5 3.5-1.9 4.5zm0.2-48.2c-2.1 1.8-5.2 1.7-7.1-0.4-1.8-2.1-1.7-5.2 0.4-7.1 1.3-1.2 3.1-1.6 4.8-1.1l9-4.6-5.5 8.4c0.3 1.9-0.3 3.6-1.6 4.8zm0.3-48.2c-1.9 2-5.1 2-7.1 0.1s-2-5.1-0.1-7.1c1.2-1.3 3-1.8 4.7-1.4l8.6-5.2-4.9 8.8c0.5 1.7 0 3.5-1.2 4.8zm0.2-48.3c-1.8 2.1-4.9 2.4-7 0.6s-2.4-4.9-0.6-7c1.1-1.3 2.9-2 4.6-1.7l8.2-5.8-4.3 9.1c0.6 1.6 0.3 3.5-0.9 4.8zm0.2-48.3c-1.6 2.2-4.7 2.7-7 1.1s-2.7-4.7-1.1-7c1-1.4 2.7-2.2 4.5-2l7.8-6.4-3.6 9.4c0.7 1.7 0.5 3.5-0.6 4.9zm0.2-48.3c-1.5 2.3-4.5 3.1-6.9 1.6-2.3-1.5-3.1-4.5-1.6-6.9 0.9-1.5 2.6-2.4 4.3-2.3l7.4-6.9-3 9.6c0.9 1.6 0.8 3.5-0.2 4.9zm0.2-48.3c-1.3 2.4-4.3 3.4-6.8 2.1s-3.4-4.3-2.1-6.8c0.8-1.5 2.4-2.5 4.1-2.6l6.9-7.4-2.3 9.8c1 1.5 1 3.4 0.2 4.9zm0.2-48.3c-1.1 2.5-4.1 3.7-6.6 2.5-2.5-1.1-3.7-4.1-2.5-6.6 0.7-1.6 2.2-2.7 3.9-2.9l6.3-7.8-1.6 9.9c1 1.5 1.2 3.3 0.5 4.9zm-6.3-45.3c-2.6-0.9-3.9-3.8-3-6.4 0.6-1.7 2-2.9 3.7-3.2l5.8-8.3-0.9 10c1.7 2.2 1.4 5.3-0.8 7-1.3 1.2-3.2 1.5-4.8 0.9zm6.5-51.3c-0.8 2.7-3.5 4.2-6.2 3.4s-4.2-3.5-3.4-6.2c0.5-1.7 1.8-3 3.5-3.4l5.2-8.6-0.2 10.1c1.2 1.2 1.6 3 1.1 4.7zm-2.9-1532.8c-1.6 0.7-3.5 0.4-4.9-0.6l-10 1.2 8-6c0.4-2.7 3-4.6 5.7-4.1 2.7 0.4 4.6 3 4.1 5.7-0.1 1.7-1.3 3.2-2.9 3.8zm0.3-48.1c-1.6 0.8-3.4 0.7-4.9-0.3l-9.9 1.9 7.6-6.6c0.3-2.7 2.7-4.8 5.4-4.5s4.8 2.7 4.5 5.4c-0.1 1.8-1.1 3.3-2.7 4.1zm-4.6-48.1-9.7 2.6 7.1-7.1c0.1-2.8 2.3-5 5.1-4.9s5 2.3 4.9 5.1-2.3 5-5.1 4.9c-0.8 0-1.6-0.2-2.3-0.6zm0.3-47.9-9.5 3.3 6.6-7.6c-0.1-2.8 2-5.1 4.8-5.2s5.1 2 5.2 4.8-2 5.1-4.8 5.2c-0.8 0-1.6-0.1-2.3-0.5zm1.7-239.5l-7.8 6.3 3.6-9.4c-1.1-2.5 0.1-5.5 2.7-6.5 2.5-1.1 5.5 0.1 6.5 2.7 1.1 2.5-0.1 5.5-2.7 6.5-0.7 0.3-1.5 0.5-2.3 0.4zm-3.4 39.8c1.8-2.1 4.9-2.4 7-0.6s2.4 4.9 0.6 7c-1.1 1.3-2.9 2-4.6 1.7l-8.2 5.8 4.3-9.1c-0.6-1.6-0.3-3.5 0.9-4.8zm0.2 47.7c1.9-2 5.1-2 7.1-0.1s2 5.1 0.1 7.1c-1.2 1.3-3 1.8-4.7 1.4l-8.6 5.2 4.9-8.8c-0.5-1.7 0-3.5 1.2-4.8zm0.3 47.8c2.1-1.8 5.2-1.7 7.1 0.4 1.8 2.1 1.7 5.2-0.4 7.1-1.3 1.2-3.1 1.6-4.8 1.1l-9 4.6 5.5-8.4c-0.3-1.9 0.3-3.6 1.6-4.8zm0.2 47.8c2.2-1.7 5.3-1.3 7 0.9s1.3 5.3-0.9 7c-1.4 1.1-3.2 1.4-4.8 0.7l-9.3 3.9 6.1-8c-0.2-1.7 0.5-3.5 1.9-4.5zm1.6 239.1c2.6-0.9 5.4 0.6 6.3 3.2s-0.6 5.4-3.2 6.3c-1.7 0.5-3.5 0.2-4.8-1l-10 0.5 8.4-5.5c0.3-1.5 1.6-2.9 3.3-3.5zm0.3 47.9c2.7-0.7 5.4 1 6.1 3.6s-1 5.4-3.6 6.1c-1.7 0.4-3.5-0.1-4.7-1.3l-10.1-0.2 8.8-4.9c0.4-1.6 1.8-2.8 3.5-3.3zm0.3 48c2.7-0.5 5.3 1.3 5.8 4.1 0.5 2.7-1.3 5.3-4.1 5.8-1.7 0.3-3.5-0.3-4.6-1.6l-10-0.9 9.1-4.2c0.7-1.7 2.1-2.9 3.8-3.2zm0.4 47.9c2.7-0.3 5.2 1.7 5.5 4.5s-1.7 5.2-4.5 5.5c-1.7 0.2-3.4-0.6-4.5-1.9l-9.9-1.6 9.4-3.6c0.7-1.6 2.2-2.7 4-2.9zm0.3 48c2.8-0.1 5.1 2.1 5.2 4.8 0.1 2.8-2.1 5.1-4.8 5.2-1.7 0.1-3.4-0.8-4.4-2.3l-9.8-2.3 9.6-2.9c0.9-1.5 2.5-2.4 4.2-2.5zm0.4 48c2.8 0.1 4.9 2.4 4.8 5.2s-2.4 4.9-5.2 4.8c-1.7-0.1-3.3-1-4.2-2.6l-9.6-2.9 9.8-2.3c1-1.4 2.6-2.3 4.4-2.2zm0.3 48c2.7 0.3 4.7 2.7 4.5 5.5-0.3 2.7-2.7 4.7-5.5 4.5-1.7-0.2-3.3-1.3-4-2.8l-9.4-3.6 9.9-1.6c1.1-1.4 2.8-2.2 4.5-2zm0.4 48.1c2.7 0.5 4.5 3.1 4.1 5.8-0.5 2.7-3.1 4.5-5.8 4.1-1.7-0.3-3.2-1.5-3.8-3.1l-9.1-4.2 10-0.9c1.1-1.4 2.8-2 4.6-1.7zm0.3 48c2.7 0.7 4.3 3.4 3.6 6.1s-3.4 4.3-6.1 3.6c-1.7-0.4-3-1.7-3.6-3.4l-8.8-4.9 10.1-0.2c1.3-1.1 3.1-1.6 4.8-1.2zm0.3 48.1c2.6 0.9 4.1 3.7 3.2 6.3s-3.7 4.1-6.3 3.2c-1.7-0.5-2.9-1.9-3.3-3.6l-8.4-5.5 10 0.5c1.4-1 3.2-1.4 4.8-0.9zm0.4 48.2c2.6 1 3.8 4 2.8 6.5-1 2.6-4 3.8-6.5 2.8-1.6-0.7-2.8-2.1-3.1-3.8l-8-6 10 1.2c1.3-1.2 3.2-1.4 4.8-0.7zm0.3 48.1c2.5 1.2 3.5 4.2 2.3 6.7s-4.2 3.5-6.7 2.3c-1.6-0.8-2.6-2.3-2.8-4l-7.6-6.6 9.9 1.9c1.5-1 3.3-1.1 4.9-0.3zm0.3 48.2c2.4 1.4 3.2 4.4 1.8 6.8s-4.4 3.2-6.8 1.8c-1.5-0.9-2.5-2.5-2.5-4.2l-7.1-7.1 9.7 2.6c1.5-0.8 3.4-0.8 4.9 0.1zm0.3 48.2c2.3 1.5 2.9 4.7 1.3 6.9-1.5 2.3-4.7 2.9-6.9 1.3-1.4-1-2.3-2.6-2.2-4.4l-6.6-7.6 9.5 3.3c1.6-0.7 3.4-0.5 4.9 0.5zm0.3 48.2c2.2 1.7 2.6 4.8 0.9 7s-4.8 2.6-7 0.9c-1.4-1.1-2.1-2.8-1.9-4.5l-6.1-8 9.3 3.9c1.6-0.7 3.4-0.4 4.8 0.7zm0.3 48.2c2.1 1.8 2.2 5 0.4 7.1s-5 2.2-7.1 0.4c-1.3-1.2-1.9-2.9-1.6-4.6l-5.5-8.4 9 4.6c1.6-0.7 3.4-0.3 4.8 0.9zm0.2 48.2c1.9 2 1.9 5.2-0.1 7.1s-5.2 1.9-7.1-0.1c-1.2-1.3-1.7-3.1-1.2-4.8l-4.9-8.8 8.6 5.2c1.7-0.4 3.5 0.2 4.7 1.4zm0.2 48.3c1.8 2.1 1.5 5.3-0.6 7s-5.3 1.5-7-0.6c-1.1-1.3-1.5-3.2-0.9-4.8l-4.3-9.1 8.2 5.8c1.8-0.3 3.5 0.3 4.6 1.7zm0.2 48.3c1.6 2.2 1.1 5.4-1.1 7s-5.4 1.1-7-1.1c-1-1.4-1.2-3.3-0.6-4.9l-3.6-9.4 7.8 6.3c1.8-0.1 3.5 0.6 4.5 2.1zm0.2 48.2c1.5 2.3 0.8 5.4-1.6 6.9s-5.4 0.8-6.9-1.6c-0.9-1.5-1-3.3-0.2-4.9l-3-9.6 7.4 6.9c1.8 0 3.4 0.9 4.3 2.3zm0.2 48.4c1.3 2.4 0.4 5.5-2.1 6.8-2.4 1.3-5.5 0.4-6.8-2.1-0.8-1.5-0.8-3.4 0.1-4.9l-2.3-9.8 6.9 7.4c1.8 0 3.4 1 4.2 2.6zm0.2 48.3c1.1 2.5 0 5.5-2.5 6.6s-5.5 0-6.6-2.5c-0.7-1.6-0.5-3.4 0.5-4.9l-1.6-9.9 6.3 7.8c1.7 0.2 3.2 1.3 3.9 2.9zm-8.5 46.9-0.9-10 5.8 8.3c2.7 0.5 4.5 3.2 3.9 5.9-0.5 2.7-3.2 4.5-5.9 3.9-2.7-0.5-4.5-3.2-3.9-5.9 0.2-0.9 0.5-1.6 1-2.2zm0.2 47.7-0.2-10.1 5.2 8.6c2.7 0.7 4.2 3.5 3.5 6.1-0.7 2.7-3.5 4.2-6.1 3.5-2.7-0.7-4.2-3.5-3.5-6.1 0.2-0.7 0.6-1.4 1.1-2zm0.3 47.8 0.5-10.1 4.6 9c2.6 0.9 4 3.8 3.1 6.4s-3.8 4-6.4 3.1-4-3.8-3.1-6.4c0.2-0.8 0.7-1.5 1.3-2zm8.3 292.6c-0.6 2.7-3.2 4.4-5.9 3.9-2.7-0.6-4.4-3.2-3.9-5.9 0.4-1.7 1.6-3.1 3.2-3.7l4.6-9 0.5 10c1.3 1.3 1.9 3 1.5 4.7zm0.1-48.3c-0.4 2.7-2.9 4.6-5.7 4.2-2.7-0.4-4.6-2.9-4.2-5.7 0.2-1.7 1.4-3.2 3-3.9l3.9-9.3 1.2 10c1.3 1.2 2 3 1.8 4.7zm0-48.4c-0.2 2.8-2.6 4.8-5.3 4.6-2.8-0.2-4.8-2.6-4.6-5.3 0.1-1.7 1.1-3.3 2.7-4.1l3.3-9.5 1.9 9.9c1.3 1 2.1 2.7 2 4.4zm-7.9-100.4 1.9-9.9 3.3 9.5c2.5 1.3 3.4 4.3 2.2 6.7-1.3 2.5-4.3 3.4-6.7 2.2-2.5-1.3-3.4-4.3-2.2-6.7 0.3-0.7 0.9-1.3 1.5-1.8zm7.9 52.1c0 2.8-2.2 5-5 5s-5-2.2-5-5c0-1.7 0.9-3.4 2.4-4.3l2.6-9.7 2.6 9.7c1.5 0.9 2.4 2.6 2.4 4.3zm0-96.7c0.4 2.7-1.5 5.3-4.2 5.7s-5.3-1.5-5.7-4.2c-0.2-1.7 0.4-3.5 1.8-4.6l1.2-10 3.9 9.3c1.6 0.6 2.7 2.1 3 3.8zm-3.1 1436.1c1.6 0.7 2.8 2.1 3.1 3.8l8 6-10-1.2c-2.2 1.6-5.3 1.2-7-1-1.6-2.2-1.2-5.3 1-7 1.4-1.1 3.3-1.3 4.9-0.6zm0.3 48.1c1.6 0.8 2.6 2.3 2.8 4l7.6 6.6-9.9-1.9c-2.3 1.5-5.4 0.8-6.9-1.5s-0.8-5.4 1.5-6.9c1.5-0.9 3.3-1.1 4.9-0.3zm0.3 48.2c1.5 0.9 2.5 2.5 2.5 4.2l7.1 7.1-9.7-2.6c-2.4 1.3-5.5 0.4-6.8-2s-0.4-5.5 2-6.8c1.5-0.8 3.4-0.8 4.9 0.1zm-7.2219 290.88c0.55088-2.4108 2.1064-3.7267 4.8438-3.5831 2.0722 0.1536 2.9053 0.9713 3.7781 2.1051 0.86359 1.378 0.745 2.5229 0.745 3.797v0.1 1l3.513 9.284-1.3-1.1h-0.01203l-6.6819-5.1861c-0.59898-0.1736-0.75979-0.073-1.861-0.4579-1.6205-0.3758-2.7473-2.2708-2.977-3.1901-0.39332-1.3784-0.23088-1.8811-0.04797-2.7689zm0.922-43.4c-1.8-2.1-1.5-5.3 0.6-7s5.3-1.5 7 0.6c1.1 1.3 1.5 3.2 0.9 4.8l4.3 9.1-8.2-5.8c-1.8 0.3-3.5-0.3-4.6-1.7zm0.2-47.7c-1.9-2-1.9-5.2 0.1-7.1s5.2-1.9 7.1 0.1c1.2 1.3 1.7 3.1 1.2 4.8l4.9 8.8-8.6-5.2c-1.7 0.4-3.5-0.2-4.7-1.4zm0.3-47.8c-2.1-1.8-2.2-5-0.4-7.1s5-2.2 7.1-0.4c1.3 1.2 1.9 2.9 1.6 4.6l5.5 8.4-9-4.6c-1.7 0.7-3.5 0.3-4.8-0.9zm0.2-47.8c-2.2-1.7-2.6-4.8-0.9-7s4.8-2.6 7-0.9c1.4 1.1 2.1 2.8 1.9 4.5l6.1 8-9.3-3.9c-1.6 0.7-3.4 0.4-4.8-0.7zm0.3-47.8c-2.3-1.5-2.9-4.7-1.3-6.9 1.5-2.3 4.7-2.9 6.9-1.3 1.4 1 2.3 2.6 2.2 4.4l6.6 7.6-9.5-3.3c-1.6 0.7-3.4 0.5-4.9-0.5zm1.3-191.3c-2.6-0.9-4.1-3.7-3.2-6.3s3.7-4.1 6.3-3.2c1.7 0.5 2.9 1.9 3.3 3.6l8.4 5.5-10-0.5c-1.4 1-3.2 1.4-4.8 0.9zm0.3-47.9c-2.7-0.7-4.3-3.4-3.6-6.1s3.4-4.3 6.1-3.6c1.7 0.4 3 1.7 3.6 3.4l8.8 4.9-10.1 0.2c-1.3 1.1-3.1 1.6-4.8 1.2zm0.3-48c-2.7-0.5-4.5-3.1-4.1-5.8s3.1-4.5 5.8-4.1c1.7 0.3 3.2 1.5 3.8 3.1l9.1 4.2-10 0.9c-1.1 1.4-2.8 2-4.6 1.7zm0.4-47.9c-2.7-0.3-4.7-2.7-4.5-5.5s2.7-4.7 5.5-4.5c1.7 0.2 3.3 1.3 4 2.8l9.4 3.6-9.9 1.6c-1.1 1.4-2.8 2.2-4.5 2zm0.3-48c-2.8-0.1-4.9-2.4-4.8-5.2s2.4-4.9 5.2-4.8c1.7 0.1 3.3 1 4.2 2.6l9.6 2.9-9.8 2.3c-1 1.4-2.6 2.3-4.4 2.2z"/></svg>
