<?xml version="1.0" encoding="UTF-8" standalone="no"?>
<svg xmlns:rdf="http://www.w3.org/1999/02/22-rdf-syntax-ns#" xmlns="http://www.w3.org/2000/svg" height="3504" width="48" version="1.1" y="0" x="0" xmlns:cc="http://creativecommons.org/ns#" xmlns:dc="http://purl.org/dc/elements/1.1/">
<style type="text/css">
	.st0{fill:#333333;}
	.st1{fill:#cccccc;}
</style>
 <path d="m34.6 3446.5l-2.35-3.23c6.2446-4.5593 7.6108-13.318 3.0514-19.562s-13.318-7.6108-19.562-3.0513c-6.2446 4.5593-7.6108 13.318-3.0514 19.562 0.85333 1.1687 1.8827 2.1982 3.0514 3.0515l-2.351 3.23c-8.0321-5.8574-9.795-17.117-3.9375-25.149 5.8575-8.0322 17.117-9.7952 25.149-3.9375 8.0321 5.8574 9.795 17.117 3.9375 25.149-1.101 1.5-2.429 2.8-3.938 3.9zm0-48l-2.35-3.23c6.2446-4.5593 7.6108-13.318 3.0514-19.562s-13.318-7.6108-19.562-3.0513c-6.2446 4.5593-7.6108 13.318-3.0514 19.562 0.85333 1.1687 1.8827 2.1982 3.0514 3.0515l-2.351 3.23c-8.0321-5.8574-9.795-17.117-3.9375-25.149 5.8575-8.0322 17.117-9.7952 25.149-3.9375 8.0321 5.8574 9.795 17.117 3.9375 25.149-1.101 1.5-2.429 2.8-3.938 3.9zm0-48l-2.35-3.23c6.2446-4.5593 7.6108-13.318 3.0514-19.562s-13.318-7.6108-19.562-3.0513c-6.2446 4.5593-7.6108 13.318-3.0514 19.562 0.85333 1.1687 1.8827 2.1982 3.0514 3.0515l-2.351 3.23c-8.0321-5.8574-9.795-17.117-3.9375-25.149 5.8575-8.0322 17.117-9.7952 25.149-3.9375 8.0321 5.8574 9.795 17.117 3.9375 25.149-1.101 1.5-2.429 2.8-3.938 3.9zm0-48l-2.35-3.23c6.2446-4.5593 7.6108-13.318 3.0514-19.562s-13.318-7.6108-19.562-3.0513c-6.2446 4.5593-7.6108 13.318-3.0514 19.562 0.85333 1.1687 1.8827 2.1982 3.0514 3.0515l-2.351 3.23c-8.0321-5.8574-9.795-17.117-3.9375-25.149 5.8575-8.0322 17.117-9.7952 25.149-3.9375 8.0321 5.8574 9.795 17.117 3.9375 25.149-1.101 1.5-2.429 2.8-3.938 3.9zm0-48l-2.35-3.23c6.2446-4.5593 7.6108-13.318 3.0514-19.562s-13.318-7.6108-19.562-3.0513c-6.2446 4.5593-7.6108 13.318-3.0514 19.562 0.85333 1.1687 1.8827 2.1982 3.0514 3.0515l-2.351 3.23c-8.0321-5.8574-9.795-17.117-3.9375-25.149 5.8575-8.0322 17.117-9.7952 25.149-3.9375 8.0321 5.8574 9.795 17.117 3.9375 25.149-1.101 1.5-2.429 2.8-3.938 3.9zm0-48l-2.35-3.23c6.2446-4.5593 7.6108-13.318 3.0514-19.562s-13.318-7.6108-19.562-3.0513c-6.2446 4.5593-7.6108 13.318-3.0514 19.562 0.85333 1.1687 1.8827 2.1982 3.0514 3.0515l-2.351 3.23c-8.0321-5.8574-9.795-17.117-3.9375-25.149 5.8575-8.0322 17.117-9.7952 25.149-3.9375 8.0321 5.8574 9.795 17.117 3.9375 25.149-1.101 1.5-2.429 2.8-3.938 3.9zm0-48l-2.35-3.23c6.2446-4.5593 7.6108-13.318 3.0514-19.562s-13.318-7.6108-19.562-3.0513c-6.2446 4.5593-7.6108 13.318-3.0514 19.562 0.85333 1.1687 1.8827 2.1982 3.0514 3.0515l-2.351 3.23c-8.0321-5.8574-9.795-17.117-3.9375-25.149 5.8575-8.0322 17.117-9.7952 25.149-3.9375 8.0321 5.8574 9.795 17.117 3.9375 25.149-1.101 1.5-2.429 2.8-3.938 3.9zm0-48l-2.35-3.23c6.2446-4.5593 7.6108-13.318 3.0514-19.562s-13.318-7.6108-19.562-3.0513c-6.2446 4.5593-7.6108 13.318-3.0514 19.562 0.85333 1.1687 1.8827 2.1982 3.0514 3.0515l-2.351 3.23c-8.0321-5.8574-9.795-17.117-3.9375-25.149 5.8575-8.0322 17.117-9.7952 25.149-3.9375 8.0321 5.8574 9.795 17.117 3.9375 25.149-1.101 1.5-2.429 2.8-3.938 3.9zm0-48l-2.35-3.23c6.2446-4.5593 7.6108-13.318 3.0514-19.562s-13.318-7.6108-19.562-3.0513c-6.2446 4.5593-7.6108 13.318-3.0514 19.562 0.85333 1.1687 1.8827 2.1982 3.0514 3.0515l-2.351 3.23c-8.0321-5.8574-9.795-17.117-3.9375-25.149 5.8575-8.0322 17.117-9.7952 25.149-3.9375 8.0321 5.8574 9.795 17.117 3.9375 25.149-1.101 1.5-2.429 2.8-3.938 3.9zm0-48l-2.35-3.23c6.2446-4.5593 7.6108-13.318 3.0514-19.562s-13.318-7.6108-19.562-3.0513c-6.2446 4.5593-7.6108 13.318-3.0514 19.562 0.85333 1.1687 1.8827 2.1982 3.0514 3.0515l-2.351 3.23c-8.0321-5.8574-9.795-17.117-3.9375-25.149 5.8575-8.0322 17.117-9.7952 25.149-3.9375 8.0321 5.8574 9.795 17.117 3.9375 25.149-1.101 1.5-2.429 2.8-3.938 3.9zm0-48l-2.35-3.23c6.2446-4.5593 7.6108-13.318 3.0514-19.562s-13.318-7.6108-19.562-3.0513c-6.2446 4.5593-7.6108 13.318-3.0514 19.562 0.85333 1.1687 1.8827 2.1982 3.0514 3.0515l-2.351 3.23c-8.0321-5.8574-9.795-17.117-3.9375-25.149 5.8575-8.0322 17.117-9.7952 25.149-3.9375 8.0321 5.8574 9.795 17.117 3.9375 25.149-1.101 1.5-2.429 2.8-3.938 3.9zm0-48l-2.35-3.23c6.2446-4.5593 7.6108-13.318 3.0514-19.562s-13.318-7.6108-19.562-3.0513c-6.2446 4.5593-7.6108 13.318-3.0514 19.562 0.85333 1.1687 1.8827 2.1982 3.0514 3.0515l-2.351 3.23c-8.0321-5.8574-9.795-17.117-3.9375-25.149 5.8575-8.0322 17.117-9.7952 25.149-3.9375 8.0321 5.8574 9.795 17.117 3.9375 25.149-1.101 1.5-2.429 2.8-3.938 3.9zm0-48l-2.35-3.23c6.2446-4.5593 7.6108-13.318 3.0514-19.562s-13.318-7.6108-19.562-3.0513c-6.2446 4.5593-7.6108 13.318-3.0514 19.562 0.85333 1.1687 1.8827 2.1982 3.0514 3.0515l-2.351 3.23c-8.0321-5.8574-9.795-17.117-3.9375-25.149 5.8575-8.0322 17.117-9.7952 25.149-3.9375 8.0321 5.8574 9.795 17.117 3.9375 25.149-1.101 1.5-2.429 2.8-3.938 3.9zm0-48l-2.35-3.23c6.2446-4.5593 7.6108-13.318 3.0514-19.562s-13.318-7.6108-19.562-3.0513c-6.2446 4.5593-7.6108 13.318-3.0514 19.562 0.85333 1.1687 1.8827 2.1982 3.0514 3.0515l-2.351 3.23c-8.0321-5.8574-9.795-17.117-3.9375-25.149 5.8575-8.0322 17.117-9.7952 25.149-3.9375 8.0321 5.8574 9.795 17.117 3.9375 25.149-1.101 1.5-2.429 2.8-3.938 3.9zm0-48l-2.35-3.23c6.2446-4.5593 7.6108-13.318 3.0514-19.562s-13.318-7.6108-19.562-3.0513c-6.2446 4.5593-7.6108 13.318-3.0514 19.562 0.85333 1.1687 1.8827 2.1982 3.0514 3.0515l-2.351 3.23c-8.0321-5.8574-9.795-17.117-3.9375-25.149 5.8575-8.0322 17.117-9.7952 25.149-3.9375 8.0321 5.8574 9.795 17.117 3.9375 25.149-1.101 1.5-2.429 2.8-3.938 3.9zm0-48l-2.35-3.23c6.2446-4.5593 7.6108-13.318 3.0514-19.562s-13.318-7.6108-19.562-3.0513c-6.2446 4.5593-7.6108 13.318-3.0514 19.562 0.85333 1.1687 1.8827 2.1982 3.0514 3.0515l-2.351 3.23c-8.0321-5.8574-9.795-17.117-3.9375-25.149 5.8575-8.0322 17.117-9.7952 25.149-3.9375 8.0321 5.8574 9.795 17.117 3.9375 25.149-1.101 1.5-2.429 2.8-3.938 3.9zm0-48l-2.35-3.23c6.2446-4.5593 7.6108-13.318 3.0514-19.562s-13.318-7.6108-19.562-3.0513c-6.2446 4.5593-7.6108 13.318-3.0514 19.562 0.85333 1.1687 1.8827 2.1982 3.0514 3.0515l-2.351 3.23c-8.0321-5.8574-9.795-17.117-3.9375-25.149 5.8575-8.0322 17.117-9.7952 25.149-3.9375 8.0321 5.8574 9.795 17.117 3.9375 25.149-1.101 1.5-2.429 2.8-3.938 3.9zm0-48l-2.35-3.23c6.2446-4.5593 7.6108-13.318 3.0514-19.562s-13.318-7.6108-19.562-3.0513c-6.2446 4.5593-7.6108 13.318-3.0514 19.562 0.85333 1.1687 1.8827 2.1982 3.0514 3.0515l-2.351 3.23c-8.0321-5.8574-9.795-17.117-3.9375-25.149 5.8575-8.0322 17.117-9.7952 25.149-3.9375 8.0321 5.8574 9.795 17.117 3.9375 25.149-1.101 1.5-2.429 2.8-3.938 3.9zm0-48l-2.35-3.23c6.2446-4.5593 7.6108-13.318 3.0514-19.562s-13.318-7.6108-19.562-3.0513c-6.2446 4.5593-7.6108 13.318-3.0514 19.562 0.85333 1.1687 1.8827 2.1982 3.0514 3.0515l-2.351 3.23c-8.0321-5.8574-9.795-17.117-3.9375-25.149 5.8575-8.0322 17.117-9.7952 25.149-3.9375 8.0321 5.8574 9.795 17.117 3.9375 25.149-1.101 1.5-2.429 2.8-3.938 3.9zm0-48l-2.35-3.23c6.2446-4.5593 7.6108-13.318 3.0514-19.562s-13.318-7.6108-19.562-3.0513c-6.2446 4.5593-7.6108 13.318-3.0514 19.562 0.85333 1.1687 1.8827 2.1982 3.0514 3.0515l-2.351 3.23c-8.0321-5.8574-9.795-17.117-3.9375-25.149 5.8575-8.0322 17.117-9.7952 25.149-3.9375 8.0321 5.8574 9.795 17.117 3.9375 25.149-1.101 1.5-2.429 2.8-3.938 3.9zm0-48l-2.35-3.23c6.2446-4.5593 7.6108-13.318 3.0514-19.562s-13.318-7.6108-19.562-3.0513c-6.2446 4.5593-7.6108 13.318-3.0514 19.562 0.85333 1.1687 1.8827 2.1982 3.0514 3.0515l-2.351 3.23c-8.0321-5.8574-9.795-17.117-3.9375-25.149 5.8575-8.0322 17.117-9.7952 25.149-3.9375 8.0321 5.8574 9.795 17.117 3.9375 25.149-1.101 1.5-2.429 2.8-3.938 3.9zm0-48l-2.35-3.23c6.2446-4.5593 7.6108-13.318 3.0514-19.562s-13.318-7.6108-19.562-3.0513c-6.2446 4.5593-7.6108 13.318-3.0514 19.562 0.85333 1.1687 1.8827 2.1982 3.0514 3.0515l-2.351 3.23c-8.0321-5.8574-9.795-17.117-3.9375-25.149 5.8575-8.0322 17.117-9.7952 25.149-3.9375 8.0321 5.8574 9.795 17.117 3.9375 25.149-1.101 1.5-2.429 2.8-3.938 3.9zm0-48l-2.35-3.23c6.2446-4.5593 7.6108-13.318 3.0514-19.562s-13.318-7.6108-19.562-3.0513c-6.2446 4.5593-7.6108 13.318-3.0514 19.562 0.85333 1.1687 1.8827 2.1982 3.0514 3.0515l-2.351 3.23c-8.0321-5.8574-9.795-17.117-3.9375-25.149 5.8575-8.0322 17.117-9.7952 25.149-3.9375 8.0321 5.8574 9.795 17.117 3.9375 25.149-1.101 1.5-2.429 2.8-3.938 3.9zm0-48l-2.35-3.23c6.2446-4.5593 7.6108-13.318 3.0514-19.562s-13.318-7.6108-19.562-3.0513c-6.2446 4.5593-7.6108 13.318-3.0514 19.562 0.85333 1.1687 1.8827 2.1982 3.0514 3.0515l-2.351 3.23c-8.0321-5.8574-9.795-17.117-3.9375-25.149 5.8575-8.0322 17.117-9.7952 25.149-3.9375 8.0321 5.8574 9.795 17.117 3.9375 25.149-1.101 1.5-2.429 2.8-3.938 3.9zm0-48l-2.35-3.23c6.2446-4.5593 7.6108-13.318 3.0514-19.562s-13.318-7.6108-19.562-3.0513c-6.2446 4.5593-7.6108 13.318-3.0514 19.562 0.85333 1.1687 1.8827 2.1982 3.0514 3.0515l-2.351 3.23c-8.0321-5.8574-9.795-17.117-3.9375-25.149 5.8575-8.0322 17.117-9.7952 25.149-3.9375 8.0321 5.8574 9.795 17.117 3.9375 25.149-1.101 1.5-2.429 2.8-3.938 3.9zm0-48l-2.35-3.23c6.2446-4.5593 7.6108-13.318 3.0514-19.562s-13.318-7.6108-19.562-3.0513c-6.2446 4.5593-7.6108 13.318-3.0514 19.562 0.85333 1.1687 1.8827 2.1982 3.0514 3.0515l-2.351 3.23c-8.0321-5.8574-9.795-17.117-3.9375-25.149 5.8575-8.0322 17.117-9.7952 25.149-3.9375 8.0321 5.8574 9.795 17.117 3.9375 25.149-1.101 1.5-2.429 2.8-3.938 3.9zm0-48l-2.35-3.23c6.2446-4.5593 7.6108-13.318 3.0514-19.562s-13.318-7.6108-19.562-3.0513c-6.2446 4.5593-7.6108 13.318-3.0514 19.562 0.85333 1.1687 1.8827 2.1982 3.0514 3.0515l-2.351 3.23c-8.0321-5.8574-9.795-17.117-3.9375-25.149 5.8575-8.0322 17.117-9.7952 25.149-3.9375 8.0321 5.8574 9.795 17.117 3.9375 25.149-1.101 1.5-2.429 2.8-3.938 3.9zm0-48l-2.35-3.23c6.2446-4.5593 7.6108-13.318 3.0514-19.562s-13.318-7.6108-19.562-3.0513c-6.2446 4.5593-7.6108 13.318-3.0514 19.562 0.85333 1.1687 1.8827 2.1982 3.0514 3.0515l-2.351 3.23c-8.0321-5.8574-9.795-17.117-3.9375-25.149 5.8575-8.0322 17.117-9.7952 25.149-3.9375 8.0321 5.8574 9.795 17.117 3.9375 25.149-1.101 1.5-2.429 2.8-3.938 3.9zm0-48l-2.35-3.23c6.2446-4.5593 7.6108-13.318 3.0514-19.562s-13.318-7.6108-19.562-3.0513c-6.2446 4.5593-7.6108 13.318-3.0514 19.562 0.85333 1.1687 1.8827 2.1982 3.0514 3.0515l-2.351 3.23c-8.0321-5.8574-9.795-17.117-3.9375-25.149 5.8575-8.0322 17.117-9.7952 25.149-3.9375 8.0321 5.8574 9.795 17.117 3.9375 25.149-1.101 1.5-2.429 2.8-3.938 3.9zm0-48l-2.35-3.23c6.2446-4.5593 7.6108-13.318 3.0514-19.562-4.5594-6.2448-13.318-7.6108-19.562-3.0515-6.2446 4.5594-7.6108 13.318-3.0514 19.562 0.85333 1.1687 1.8827 2.1982 3.0514 3.0515l-2.351 3.23c-8.0321-5.8574-9.795-17.117-3.9375-25.15 5.8575-8.0321 17.117-9.7949 25.149-3.9374s9.795 17.117 3.9375 25.149c-1.101 1.5-2.429 2.8-3.938 3.9zm0-48l-2.35-3.23c6.2446-4.5593 7.6108-13.318 3.0514-19.562-4.5594-6.2448-13.318-7.6108-19.562-3.0515-6.2446 4.5594-7.6108 13.318-3.0514 19.562 0.85333 1.1687 1.8827 2.1981 3.0514 3.0514l-2.351 3.23c-8.0321-5.8575-9.795-17.117-3.9375-25.15 5.8575-8.0321 17.117-9.7949 25.149-3.9374s9.795 17.117 3.9375 25.149c-1.101 1.5-2.429 2.8-3.938 3.9zm0-48l-2.35-3.23c6.2446-4.5593 7.6108-13.318 3.0514-19.562-4.5594-6.2448-13.318-7.6108-19.562-3.0515-6.2446 4.5594-7.6108 13.318-3.0514 19.562 0.85333 1.1687 1.8827 2.1981 3.0514 3.0514l-2.351 3.23c-8.0321-5.8575-9.795-17.117-3.9375-25.15 5.8575-8.0321 17.117-9.7949 25.149-3.9374s9.795 17.117 3.9375 25.149c-1.101 1.5-2.429 2.8-3.938 3.9zm0-48l-2.35-3.23c6.2446-4.5593 7.6108-13.318 3.0514-19.562-4.5594-6.2448-13.318-7.6108-19.562-3.0515-6.2446 4.5594-7.6108 13.318-3.0514 19.562 0.85333 1.1687 1.8827 2.1981 3.0514 3.0514l-2.351 3.23c-8.0321-5.8575-9.795-17.117-3.9375-25.15 5.8575-8.0321 17.117-9.7949 25.149-3.9374s9.795 17.117 3.9375 25.149c-1.101 1.5-2.429 2.8-3.938 3.9zm0-48l-2.35-3.23c6.2446-4.5593 7.6108-13.318 3.0514-19.562-4.5594-6.2448-13.318-7.6108-19.562-3.0515-6.2446 4.5594-7.6108 13.318-3.0514 19.562 0.85333 1.1687 1.8827 2.1981 3.0514 3.0514l-2.351 3.23c-8.0321-5.8575-9.795-17.117-3.9375-25.15 5.8575-8.0321 17.117-9.7949 25.149-3.9374s9.795 17.117 3.9375 25.149c-1.101 1.5-2.429 2.8-3.938 3.9zm0-48l-2.35-3.23c6.2446-4.5593 7.6108-13.318 3.0514-19.562-4.5594-6.2448-13.318-7.6108-19.562-3.0515-6.2446 4.5594-7.6108 13.318-3.0514 19.562 0.85333 1.1687 1.8827 2.1981 3.0514 3.0514l-2.351 3.23c-8.0321-5.8575-9.795-17.117-3.9375-25.15 5.8575-8.0321 17.117-9.7949 25.149-3.9374s9.795 17.117 3.9375 25.149c-1.101 1.5-2.429 2.8-3.938 3.9zm0-48l-2.35-3.23c6.2446-4.5593 7.6108-13.318 3.0514-19.562-4.5594-6.2448-13.318-7.6108-19.562-3.0515-6.2446 4.5594-7.6108 13.318-3.0514 19.562 0.85333 1.1687 1.8827 2.1981 3.0514 3.0514l-2.351 3.23c-8.0321-5.8575-9.795-17.117-3.9375-25.15 5.8575-8.0321 17.117-9.7949 25.149-3.9374s9.795 17.117 3.9375 25.149c-1.101 1.5-2.429 2.8-3.938 3.9zm0-48l-2.35-3.23c6.2446-4.5593 7.6108-13.318 3.0514-19.562-4.5594-6.2448-13.318-7.6108-19.562-3.0515-6.2446 4.5594-7.6108 13.318-3.0514 19.562 0.85333 1.1687 1.8827 2.1981 3.0514 3.0514l-2.351 3.23c-8.0321-5.8575-9.795-17.117-3.9375-25.15 5.8575-8.0321 17.117-9.7949 25.149-3.9374s9.795 17.117 3.9375 25.149c-1.101 1.5-2.429 2.8-3.938 3.9zm0-48l-2.35-3.23c6.2446-4.5593 7.6108-13.318 3.0514-19.562-4.5594-6.2448-13.318-7.6108-19.562-3.0515-6.2446 4.5594-7.6108 13.318-3.0514 19.562 0.85333 1.1687 1.8827 2.1981 3.0514 3.0514l-2.351 3.23c-8.0321-5.8575-9.795-17.117-3.9375-25.15 5.8575-8.0321 17.117-9.7949 25.149-3.9374s9.795 17.117 3.9375 25.149c-1.101 1.5-2.429 2.8-3.938 3.9zm0-48l-2.35-3.23c6.2446-4.5593 7.6108-13.318 3.0514-19.562-4.5594-6.2448-13.318-7.6108-19.562-3.0515-6.2446 4.5594-7.6108 13.318-3.0514 19.562 0.85333 1.1687 1.8827 2.1981 3.0514 3.0514l-2.351 3.23c-8.0321-5.8575-9.795-17.117-3.9375-25.15 5.8575-8.0321 17.117-9.7949 25.149-3.9374s9.795 17.117 3.9375 25.149c-1.101 1.5-2.429 2.8-3.938 3.9zm0-48l-2.35-3.23c6.2446-4.5593 7.6108-13.318 3.0514-19.562-4.5594-6.2448-13.318-7.6108-19.562-3.0515-6.2446 4.5594-7.6108 13.318-3.0514 19.562 0.85333 1.1687 1.8827 2.1981 3.0514 3.0514l-2.351 3.23c-8.0321-5.8575-9.795-17.117-3.9375-25.15 5.8575-8.0321 17.117-9.7949 25.149-3.9374s9.795 17.117 3.9375 25.149c-1.101 1.5-2.429 2.8-3.938 3.9zm0-48l-2.35-3.23c6.2446-4.5593 7.6108-13.318 3.0514-19.562-4.5594-6.2448-13.318-7.6108-19.562-3.0515-6.2446 4.5594-7.6108 13.318-3.0514 19.562 0.85333 1.1687 1.8827 2.1981 3.0514 3.0514l-2.351 3.23c-8.0321-5.8575-9.795-17.117-3.9375-25.15 5.8575-8.0321 17.117-9.7949 25.149-3.9374s9.795 17.117 3.9375 25.149c-1.101 1.5-2.429 2.8-3.938 3.9zm0-48l-2.35-3.23c6.2446-4.5593 7.6108-13.318 3.0514-19.562-4.5594-6.2448-13.318-7.6108-19.562-3.0515-6.2446 4.5594-7.6108 13.318-3.0514 19.562 0.85333 1.1687 1.8827 2.1981 3.0514 3.0514l-2.351 3.23c-8.0321-5.8575-9.795-17.117-3.9375-25.15 5.8575-8.0321 17.117-9.7949 25.149-3.9374s9.795 17.117 3.9375 25.149c-1.101 1.5-2.429 2.8-3.938 3.9zm0-48l-2.35-3.23c6.2446-4.5593 7.6108-13.318 3.0514-19.562-4.5594-6.2448-13.318-7.6108-19.562-3.0515-6.2446 4.5594-7.6108 13.318-3.0514 19.562 0.85333 1.1687 1.8827 2.1981 3.0514 3.0514l-2.351 3.23c-8.0321-5.8575-9.795-17.117-3.9375-25.15 5.8575-8.0321 17.117-9.7949 25.149-3.9374s9.795 17.117 3.9375 25.149c-1.101 1.5-2.429 2.8-3.938 3.9zm0-48l-2.35-3.23c6.2446-4.5593 7.6108-13.318 3.0514-19.562-4.5594-6.2448-13.318-7.6108-19.562-3.0515-6.2446 4.5594-7.6108 13.318-3.0514 19.562 0.85333 1.1687 1.8827 2.1981 3.0514 3.0514l-2.351 3.23c-8.0321-5.8575-9.795-17.117-3.9375-25.15 5.8575-8.0321 17.117-9.7949 25.149-3.9374s9.795 17.117 3.9375 25.149c-1.101 1.5-2.429 2.8-3.938 3.9zm0-48l-2.35-3.23c6.2446-4.5593 7.6108-13.318 3.0514-19.562-4.5594-6.2448-13.318-7.6108-19.562-3.0515-6.2446 4.5594-7.6108 13.318-3.0514 19.562 0.85333 1.1687 1.8827 2.1981 3.0514 3.0514l-2.351 3.23c-8.0321-5.8575-9.795-17.117-3.9375-25.15 5.8575-8.0321 17.117-9.7949 25.149-3.9374s9.795 17.117 3.9375 25.149c-1.101 1.5-2.429 2.8-3.938 3.9zm0-48l-2.35-3.23c6.2446-4.5593 7.6108-13.318 3.0514-19.562-4.5594-6.2448-13.318-7.6108-19.562-3.0515-6.2446 4.5594-7.6108 13.318-3.0514 19.562 0.85333 1.1687 1.8827 2.1981 3.0514 3.0514l-2.351 3.23c-8.0321-5.8575-9.795-17.117-3.9375-25.15 5.8575-8.0321 17.117-9.7949 25.149-3.9374s9.795 17.117 3.9375 25.149c-1.101 1.5-2.429 2.8-3.938 3.9zm0-48l-2.35-3.23c6.2446-4.5593 7.6108-13.318 3.0514-19.562-4.5594-6.2448-13.318-7.6108-19.562-3.0515-6.2446 4.5594-7.6108 13.318-3.0514 19.562 0.85333 1.1687 1.8827 2.1981 3.0514 3.0514l-2.351 3.23c-8.0321-5.8575-9.795-17.117-3.9375-25.15 5.8575-8.0321 17.117-9.7949 25.149-3.9374s9.795 17.117 3.9375 25.149c-1.101 1.5-2.429 2.8-3.938 3.9zm0-48l-2.35-3.23c6.2446-4.5593 7.6108-13.318 3.0514-19.562-4.5594-6.2448-13.318-7.6108-19.562-3.0515-6.2446 4.5594-7.6108 13.318-3.0514 19.562 0.85333 1.1687 1.8827 2.1981 3.0514 3.0514l-2.351 3.23c-8.0321-5.8575-9.795-17.117-3.9375-25.15 5.8575-8.0321 17.117-9.7949 25.149-3.9374s9.795 17.117 3.9375 25.149c-1.101 1.5-2.429 2.8-3.938 3.9zm0-48l-2.35-3.23c6.2446-4.5593 7.6108-13.318 3.0514-19.562-4.5594-6.2448-13.318-7.6108-19.562-3.0515-6.2446 4.5594-7.6108 13.318-3.0514 19.562 0.85333 1.1687 1.8827 2.1981 3.0514 3.0514l-2.351 3.23c-8.0321-5.8575-9.795-17.117-3.9375-25.15 5.8575-8.0321 17.117-9.7949 25.149-3.9374s9.795 17.117 3.9375 25.149c-1.101 1.5-2.429 2.8-3.938 3.9zm0-48l-2.35-3.23c6.2446-4.5593 7.6108-13.318 3.0514-19.562-4.5594-6.2448-13.318-7.6108-19.562-3.0515-6.2446 4.5594-7.6108 13.318-3.0514 19.562 0.85333 1.1687 1.8827 2.1981 3.0514 3.0514l-2.351 3.23c-8.0321-5.8575-9.795-17.117-3.9375-25.15 5.8575-8.0321 17.117-9.7949 25.149-3.9374s9.795 17.117 3.9375 25.149c-1.101 1.5-2.429 2.8-3.938 3.9zm0-48l-2.35-3.23c6.2446-4.5593 7.6108-13.318 3.0514-19.562-4.5594-6.2446-13.318-7.6108-19.562-3.0514-6.2446 4.5594-7.6108 13.318-3.0514 19.562 0.85333 1.1687 1.8827 2.1981 3.0514 3.0514l-2.351 3.23c-8.0321-5.8575-9.795-17.117-3.9375-25.149s17.117-9.795 25.149-3.9375 9.795 17.117 3.9375 25.149c-1.101 1.5-2.429 2.8-3.938 3.9zm0-47.98l-2.35-3.233c6.2446-4.5594 7.6108-13.318 3.0514-19.562s-13.318-7.6108-19.562-3.0514-7.6108 13.318-3.0514 19.562c0.85333 1.1688 1.8827 2.1981 3.0514 3.0514l-2.351 3.231c-8.0305-5.8598-9.7902-17.12-3.9305-25.151s17.12-9.7902 25.151-3.9305c8.0305 5.8598 9.7902 17.12 3.9305 25.151-1.1007 1.5085-2.4295 2.8366-3.9386 3.9364v-0.01zm0-48l-2.35-3.233c6.2446-4.5594 7.6108-13.318 3.0514-19.562s-13.318-7.6108-19.562-3.0514-7.6108 13.318-3.0514 19.562c0.85333 1.1688 1.8827 2.1981 3.0514 3.0514l-2.351 3.231c-8.0305-5.8598-9.7902-17.12-3.9305-25.151s17.12-9.7902 25.151-3.9305c8.0305 5.8598 9.7902 17.12 3.9305 25.151-1.1007 1.5085-2.4295 2.8366-3.9386 3.9364v-0.01zm0-48l-2.35-3.233c6.2446-4.5594 7.6108-13.318 3.0514-19.562s-13.318-7.6108-19.562-3.0514-7.6108 13.318-3.0514 19.562c0.85333 1.1688 1.8827 2.1981 3.0514 3.0514l-2.351 3.231c-8.0305-5.8598-9.7902-17.12-3.9305-25.151s17.12-9.7902 25.151-3.9305c8.0305 5.8598 9.7902 17.12 3.9305 25.151-1.1007 1.5085-2.4295 2.8366-3.9386 3.9364v-0.01zm0-48l-2.35-3.233c6.2446-4.5594 7.6108-13.318 3.0514-19.562s-13.318-7.6108-19.562-3.0514-7.6108 13.318-3.0514 19.562c0.85333 1.1688 1.8827 2.1981 3.0514 3.0514l-2.351 3.231c-8.0305-5.8598-9.7902-17.12-3.9305-25.151s17.12-9.7902 25.151-3.9305c8.0305 5.8598 9.7902 17.12 3.9305 25.151-1.1007 1.5085-2.4295 2.8366-3.9386 3.9364v-0.01zm0-48l-2.35-3.233c6.2446-4.5594 7.6108-13.318 3.0514-19.562s-13.318-7.6108-19.562-3.0514-7.6108 13.318-3.0514 19.562c0.85333 1.1688 1.8827 2.1981 3.0514 3.0514l-2.351 3.231c-8.0305-5.8598-9.7902-17.12-3.9305-25.151s17.12-9.7902 25.151-3.9305c8.0305 5.8598 9.7902 17.12 3.9305 25.151-1.1007 1.5085-2.4295 2.8366-3.9386 3.9364v-0.01zm0-48l-2.35-3.233c6.2446-4.5594 7.6108-13.318 3.0514-19.562s-13.318-7.6108-19.562-3.0514-7.6108 13.318-3.0514 19.562c0.85333 1.1688 1.8827 2.1981 3.0514 3.0514l-2.351 3.231c-8.0305-5.8598-9.7902-17.12-3.9305-25.151s17.12-9.7902 25.151-3.9305c8.0305 5.8598 9.7902 17.12 3.9305 25.151-1.1007 1.5085-2.4295 2.8366-3.9386 3.9364v-0.01zm0-48l-2.35-3.233c6.2446-4.5594 7.6108-13.318 3.0514-19.562s-13.318-7.6108-19.562-3.0514-7.6108 13.318-3.0514 19.562c0.85333 1.1688 1.8827 2.1981 3.0514 3.0514l-2.351 3.231c-8.0305-5.8598-9.7902-17.12-3.9305-25.151s17.12-9.7902 25.151-3.9305c8.0305 5.8598 9.7902 17.12 3.9305 25.151-1.1007 1.5085-2.4295 2.8366-3.9386 3.9364v-0.01zm0-48l-2.35-3.233c6.2446-4.5594 7.6108-13.318 3.0514-19.562s-13.318-7.6108-19.562-3.0514-7.6108 13.318-3.0514 19.562c0.85333 1.1688 1.8827 2.1981 3.0514 3.0514l-2.351 3.231c-8.0305-5.8598-9.7902-17.12-3.9305-25.151s17.12-9.7902 25.151-3.9305c8.0305 5.8598 9.7902 17.12 3.9305 25.151-1.1007 1.5085-2.4295 2.8366-3.9386 3.9364v-0.01zm0-48l-2.35-3.233c6.2446-4.5594 7.6108-13.318 3.0514-19.562s-13.318-7.6108-19.562-3.0514-7.6108 13.318-3.0514 19.562c0.85333 1.1688 1.8827 2.1981 3.0514 3.0514l-2.351 3.231c-8.0305-5.8598-9.7902-17.12-3.9305-25.151s17.12-9.7902 25.151-3.9305c8.0305 5.8598 9.7902 17.12 3.9305 25.151-1.1007 1.5085-2.4295 2.8366-3.9386 3.9364v-0.01zm0-48l-2.35-3.233c6.2446-4.5594 7.6108-13.318 3.0514-19.562s-13.318-7.6108-19.562-3.0514-7.6108 13.318-3.0514 19.562c0.85333 1.1688 1.8827 2.1981 3.0514 3.0514l-2.351 3.231c-8.0305-5.8598-9.7902-17.12-3.9305-25.151s17.12-9.7902 25.151-3.9305c8.0305 5.8598 9.7902 17.12 3.9305 25.151-1.1007 1.5085-2.4295 2.8366-3.9386 3.9364v-0.01zm0-48l-2.35-3.233c6.2446-4.5594 7.6108-13.318 3.0514-19.562-4.5594-6.2446-13.318-7.6108-19.562-3.0514s-7.6108 13.318-3.0514 19.562c0.85333 1.1688 1.8827 2.1981 3.0514 3.0514l-2.351 3.231c-8.0305-5.8598-9.7902-17.12-3.9305-25.151s17.12-9.7902 25.151-3.9304 9.7902 17.12 3.9305 25.151c-1.1007 1.5085-2.4295 2.8366-3.9386 3.9364v-0.01zm0-48l-2.35-3.233c6.2446-4.5594 7.6108-13.318 3.0514-19.562-4.5594-6.2446-13.318-7.6108-19.562-3.0514s-7.6108 13.318-3.0514 19.562c0.85333 1.1687 1.8827 2.1981 3.0514 3.0514l-2.351 3.231c-8.0305-5.8598-9.7902-17.12-3.9304-25.151 5.8598-8.0305 17.12-9.7902 25.151-3.9304 8.0305 5.8598 9.7902 17.12 3.9304 25.151-1.1007 1.5085-2.4295 2.8365-3.9386 3.9364v-0.01zm0-48l-2.35-3.233c6.2446-4.5594 7.6108-13.318 3.0514-19.562-4.5594-6.2446-13.318-7.6108-19.562-3.0514s-7.6108 13.318-3.0514 19.562c0.85333 1.1687 1.8827 2.1981 3.0514 3.0514l-2.351 3.231c-8.0305-5.8598-9.7902-17.12-3.9304-25.151 5.8598-8.0305 17.12-9.7902 25.151-3.9304 8.0305 5.8598 9.7902 17.12 3.9304 25.151-1.1007 1.5085-2.4295 2.8365-3.9386 3.9364v-0.01zm0-48l-2.35-3.233c6.2446-4.5594 7.6108-13.318 3.0514-19.562-4.5594-6.2446-13.318-7.6108-19.562-3.0514s-7.6108 13.318-3.0514 19.562c0.85333 1.1687 1.8827 2.1981 3.0514 3.0514l-2.351 3.231c-8.0305-5.8598-9.7902-17.12-3.9304-25.151 5.8598-8.0305 17.12-9.7902 25.151-3.9304 8.0305 5.8598 9.7902 17.12 3.9304 25.151-1.1007 1.5085-2.4295 2.8365-3.9386 3.9364v-0.01zm0-48l-2.35-3.233c6.2446-4.5594 7.6108-13.318 3.0514-19.562-4.5594-6.2446-13.318-7.6108-19.562-3.0514s-7.6108 13.318-3.0514 19.562c0.85333 1.1687 1.8827 2.1981 3.0514 3.0514l-2.351 3.231c-8.0305-5.8598-9.7902-17.12-3.9304-25.151 5.8598-8.0305 17.12-9.7902 25.151-3.9304 8.0305 5.8598 9.7902 17.12 3.9304 25.151-1.1007 1.5085-2.4295 2.8365-3.9386 3.9364v-0.01zm0-48l-2.35-3.233c6.2446-4.5594 7.6108-13.318 3.0514-19.562-4.5594-6.2446-13.318-7.6108-19.562-3.0514-6.2446 4.5594-7.6108 13.318-3.0514 19.562 0.85333 1.1687 1.8827 2.1981 3.0514 3.0514l-2.351 3.231c-8.0305-5.8598-9.7902-17.12-3.9304-25.151 5.8598-8.0305 17.12-9.7902 25.151-3.9304 8.0305 5.8598 9.7902 17.12 3.9304 25.151-1.1007 1.5085-2.4295 2.8365-3.9386 3.9364v-0.01zm0-48l-2.35-3.233c6.2446-4.5594 7.6108-13.318 3.0514-19.562-4.5594-6.2446-13.318-7.6108-19.562-3.0514s-7.6108 13.318-3.0514 19.562c0.85333 1.1688 1.8827 2.1981 3.0514 3.0514l-2.351 3.231c-8.0305-5.8598-9.7902-17.12-3.9304-25.151s17.12-9.7902 25.151-3.9304c8.0305 5.8598 9.7902 17.12 3.9304 25.151-1.1007 1.5085-2.4295 2.8365-3.9386 3.9364v-0.01zm0-48l-2.35-3.233c6.2446-4.5594 7.6108-13.318 3.0514-19.562-4.5594-6.2446-13.318-7.6108-19.562-3.0514s-7.6108 13.318-3.0514 19.562c0.85333 1.1688 1.8827 2.1981 3.0514 3.0514l-2.351 3.231c-8.0305-5.8598-9.7902-17.12-3.9304-25.151s17.12-9.7902 25.151-3.9304c8.0305 5.8598 9.7902 17.12 3.9304 25.151-1.1007 1.5085-2.4295 2.8365-3.9386 3.9364v-0.01zm0-48l-2.35-3.233c6.2446-4.5594 7.6108-13.318 3.0514-19.562s-13.318-7.6108-19.562-3.0514c-6.2446 4.5594-7.6108 13.318-3.0514 19.562 0.85333 1.1688 1.8827 2.1981 3.0514 3.0514l-2.351 3.231c-8.0305-5.8598-9.7902-17.12-3.9304-25.151s17.12-9.7902 25.151-3.9304c8.0305 5.8598 9.7902 17.12 3.9304 25.151-1.1007 1.5085-2.4295 2.8365-3.9386 3.9364v-0.01zm0-48l-2.35-3.232c6.2446-4.5594 7.6108-13.318 3.0514-19.562s-13.317-7.611-19.562-3.052-7.6108 13.318-3.0514 19.562c0.85333 1.1687 1.8827 2.1981 3.0514 3.0514l-2.348 3.232c-8.0316-5.857-9.7935-17.117-3.9353-25.149s17.118-9.7935 25.15-3.9353 9.7935 17.118 3.9353 25.15c-1.1012 1.5097-2.4307 2.8387-3.9408 3.9393v-0.004zm0-48l-2.35-3.232c6.2446-4.5594 7.6108-13.318 3.0514-19.562s-13.317-7.6112-19.562-3.052-7.6108 13.318-3.0514 19.562c0.85333 1.1687 1.8827 2.1981 3.0514 3.0514l-2.348 3.232c-8.0316-5.8582-9.7936-17.118-3.9353-25.15s17.118-9.7936 25.15-3.9353 9.7936 17.118 3.9353 25.15c-1.1012 1.5097-2.4307 2.8387-3.9408 3.9393v-0.003zm-10.6 3423.5c9.9317-0.00781 17.989 8.0374 17.997 17.969 0.00448 5.7544-2.7452 11.164-7.397 14.551l-2.35-3.23c6.2446-4.5593 7.6108-13.318 3.0514-19.562s-13.318-7.6108-19.562-3.0513c-6.2446 4.5593-7.6108 13.318-3.0514 19.562 0.85333 1.1687 1.8827 2.1982 3.0514 3.0515l-2.351 3.23c-8.0275-5.8498-9.7928-17.1-3.9429-25.127 3.3889-4.8 8.7999-7.5 14.555-7.5z" fill="#333333"/>
 <path d="m35.567 3445.8l-2.567-3.1c5.9315-4.9661 6.7141-13.8 1.7481-19.732-4.966-5.9314-13.8-6.7141-19.732-1.748s-6.7141 13.8-1.7481 19.732c0.72857 0.87012 1.5602 1.6487 2.4766 2.3181l-2.345 3.22c-8.0172-5.8638-9.7629-17.117-3.899-25.134s17.117-9.7629 25.134-3.8989c8.0172 5.8638 9.7629 17.117 3.899 25.134-0.857 1.2-1.854 2.2-2.967 3.2zm0.929-48.9l-2.777-2.8799c5.5643-5.3686 5.7228-14.231 0.35417-19.796-5.3687-5.5642-14.232-5.7227-19.796-0.354s-5.7228 14.231-0.35417 19.796c0.55894 0.57935 1.1668 1.1094 1.8168 1.5842l-2.358 3.24c-8.0348-5.8613-9.7966-17.126-3.9352-25.161 5.8614-8.0347 17.127-9.7966 25.161-3.9351 8.0348 5.8613 9.7966 17.126 3.9352 25.161-0.61218 0.83936-1.2958 1.6238-2.0433 2.3452h-0.004zm0.866-48.9l-2.969-2.6699c5.1781-5.7419 4.721-14.594-1.021-19.773-5.742-5.178-14.595-4.721-19.773 1.021-5.1781 5.7422-4.721 14.595 1.021 19.773 0.35703 0.32202 0.7304 0.62549 1.1186 0.90894l-2.349 3.23c-8.0379-5.8562-9.8065-17.12-3.9503-25.157s17.12-9.8066 25.157-3.9504 9.8065 17.12 3.9503 25.158c-0.369 0.7-0.765 1.2-1.185 1.6zm0.81-48.9l-3.149-2.46c4.7928-6.0794 3.7499-14.893-2.3294-19.686-6.0793-4.7927-14.893-3.7498-19.686 2.3296s-3.7499 14.893 2.3294 19.686c0.13886 0.10962 0.27978 0.21631 0.42269 0.32056l-2.375 3.27c-8.0423-5.8557-9.8147-17.123-3.9589-25.165s17.122-9.8147 25.165-3.9587c8.0423 5.8557 9.8147 17.122 3.9589 25.165-0.12268 0.16846-0.24828 0.33496-0.37673 0.49902h-0.001zm0.752-49l-3.316-2.24c4.3443-6.4048 2.674-15.119-3.7308-19.463-6.4048-4.3442-15.119-2.6738-19.463 3.731-4.2377 6.2476-2.7645 14.729 3.3319 19.182l-2.351 3.23c-8.006-5.8708-9.7369-17.12-3.8661-25.126s17.12-9.7368 25.126-3.8662c7.7859 5.7095 9.6711 16.55 4.2699 24.552h-0.001zm0.652-49.1l-3.462-2c3.8698-6.6938 1.5803-15.258-5.1136-19.127-6.6939-3.8699-15.257-1.5803-19.127 5.1135-3.5814 6.1953-1.9145 14.094 3.8648 18.314l-2.343 3.22c-8.0318-5.8579-9.7941-17.118-3.9361-25.15s17.118-9.7942 25.15-3.9363c7.4413 5.4275 9.5853 15.596 4.9684 23.566h-0.001zm0.587-49.1l-3.592-1.75c3.396-6.9463 0.51802-15.33-6.4282-18.726s-15.33-0.51807-18.726 6.4282c-2.9814 6.0981-1.1586 13.457 4.3246 17.458l-2.362 3.24c-8.0499-5.8538-9.8301-17.125-3.9762-25.175 5.8538-8.05 17.125-9.8301 25.175-3.9763 7.0797 5.1484 9.436 14.639 5.5864 22.501h-0.002zm0.52-49.2l-3.707-1.5c2.9082-7.1643-0.54198-15.33-7.7062-18.238s-15.33 0.54199-18.238 7.7063c-2.4159 5.9514-0.47208 12.783 4.7149 16.572l-2.35 3.23c-8.0222-5.8618-9.7737-17.117-3.912-25.139s17.117-9.7737 25.139-3.9119c6.6594 4.8657 9.157 13.637 6.0598 21.281h-0.001zm0.432-49.1l-3.8-1.24c2.3939-7.352-1.6256-15.253-8.9776-17.646-7.3521-2.394-15.253 1.6255-17.647 8.9775-1.8746 5.7573 0.16426 12.067 5.0532 15.639l-2.352 3.23c-8.0306-5.8596-9.7904-17.12-3.9307-25.151 5.8597-8.0305 17.12-9.7903 25.151-3.9307 6.295 4.5 8.92 12.7 6.504 20.1zm0.334-49.2l-3.877-0.96997c1.8796-7.5-2.6767-15.104-10.177-16.983-7.5001-1.8794-15.104 2.6768-16.983 10.177-1.3868 5.5339 0.72297 11.356 5.3331 14.717l-2.353 3.23c-8.0614-5.8438-9.8592-17.116-4.0155-25.177s17.116-9.8591 25.177-4.0156c5.975 4.4 8.707 11.9 6.895 19.1zm0.263-49.3l-3.936-0.68994c1.3535-7.6126-3.7205-14.881-11.333-16.235s-14.881 3.7207-16.235 11.333c-0.93658 5.2676 1.211 10.609 5.5337 13.761l-2.351 3.23c-8.0718-5.8386-9.8821-17.115-4.0434-25.187s17.115-9.8821 25.187-4.0435c5.623 4.1 8.414 11 7.177 17.8zm0.19-49.2l-3.978-0.41992c0.80454-7.6899-4.7772-14.576-12.467-15.381-7.69-0.80444-14.576 4.7773-15.381 12.467-0.05051 0.48291-0.07588 0.96802-0.076 1.4534 0.0009 4.4648 2.1355 8.6606 5.744 11.29l-2.351 3.23c-8.0244-5.8616-9.7776-17.118-3.9159-25.143s17.118-9.7776 25.143-3.916c5.1799 3.7839 7.9536 10.039 7.2801 16.419l0.002-0.1zm-3.925-49.4c0.006-0.16992 0.025-0.33008 0.025-0.48999 0.00792-7.7319-6.2537-14.006-13.986-14.014-7.732-0.00781-14.006 6.2537-14.014 13.986-0.00458 4.4734 2.1289 8.6797 5.741 11.319l-2.351 3.23c-8.0237-5.8626-9.7758-17.12-3.9132-25.143s17.12-9.7756 25.143-3.9131c4.6391 3.3894 7.3806 8.7908 7.378 14.536 0 0.20996-0.024 0.41992-0.032 0.62988l-3.991-0.1zm-13.977-62.5c-7.7259-0.00659-13.994 6.251-14.001 13.977-0.00387 4.4727 2.131 8.6772 5.7441 11.313l-2.351 3.23c-8.0261-5.8545-9.7865-17.107-3.932-25.133s17.107-9.7866 25.133-3.9321c4.4668 3.2583 7.1871 8.3896 7.3768 13.915l-3.993 0.13989c-0.259-7.5-6.439-13.5-13.977-13.5zm0-48c-7.7259-0.00659-13.994 6.251-14.001 13.977-0.00387 4.4727 2.131 8.6772 5.7441 11.313l-2.351 3.23c-8.0239-5.8623-9.7762-17.119-3.914-25.143s17.119-9.7764 25.143-3.9141c4.1068 3.0005 6.7519 7.5986 7.2808 12.657l-3.978 0.41992c-0.747-7.2-6.757-12.6-13.924-12.6zm0-48c-7.7259-0.00659-13.994 6.251-14.001 13.977-0.00387 4.4727 2.131 8.6772 5.7441 11.313l-2.351 3.23c-8.0261-5.8555-9.7856-17.109-3.9301-25.135 5.8556-8.0259 17.109-9.7854 25.135-3.9299 3.7611 2.7439 6.3119 6.8394 7.1162 11.425l-3.936 0.68994c-1.179-6.7-6.986-11.6-13.777-11.6zm0-48c-7.7259-0.00659-13.994 6.251-14.001 13.977-0.00387 4.4727 2.131 8.6772 5.7441 11.313l-2.351 3.23c-8.026-5.8547-9.7862-17.107-3.9315-25.133 5.8547-8.0259 17.107-9.7861 25.133-3.9314 3.4111 2.4883 5.8382 6.0969 6.8563 10.195l-3.877 0.96997c-1.548-6.3-7.147-10.7-13.573-10.7zm0-48c-7.7143-0.01831-13.983 6.2205-14.001 13.935-0.01065 4.4839 2.132 8.7004 5.7601 11.335l-2.374 3.26c-8.0322-5.8574-9.7952-17.117-3.9377-25.149s17.117-9.7952 25.149-3.9377c3.0671 2.2366 5.3486 5.3857 6.5183 8.9971l-3.8 1.23c-1.875-5.8-7.25-9.7-13.314-9.7zm0-48c-7.7215-0.01099-13.99 6.2395-14.001 13.961-0.00638 4.4753 2.1301 8.6834 5.7469 11.319l-2.356 3.24c-8.0253-5.8584-9.7818-17.114-3.9233-25.139 5.8585-8.0252 17.114-9.7817 25.139-3.9231 2.7149 1.9817 4.8203 4.6846 6.0775 7.802l-3.707 1.5c-2.134-5.3-7.27-8.8-12.977-8.8zm0-48c-7.7215-0.01099-13.99 6.2395-14.001 13.961-0.00638 4.4753 2.1301 8.6834 5.7469 11.319l-2.347 3.23c-8.0237-5.8513-9.7848-17.099-3.9334-25.123s17.099-9.7849 25.123-3.9336c2.376 1.7327 4.2908 4.0217 5.5765 6.6665l-3.592 1.75c-2.34-4.9-7.222-8-12.574-8zm0-48c-7.732 0-14 6.2678-14 14-0.00003 4.4658 2.1305 8.6636 5.7351 11.3l-2.346 3.22c-8.0263-5.8542-9.787-17.107-3.9326-25.133s17.107-9.7869 25.133-3.9326c2.0328 1.4827 3.7319 3.3752 4.9875 5.5557l-3.46 1.9c-2.497-4.3-7.117-7-12.116-7zm0-48c-7.7209-0.01172-13.989 6.238-14.001 13.959-0.00672 4.4766 2.1306 8.6856 5.749 11.321l-2.353 3.24c-8.0228-5.8628-9.7737-17.119-3.9108-25.142s17.119-9.7737 25.142-3.9109c1.6802 1.2278 3.1346 2.7378 4.2986 4.4629l-3.317 2.24c-2.602-3.9-6.953-6.2-11.608-6.2zm0-48c-7.7265-0.00659-13.995 6.2515-14.002 13.978-0.00384 4.4717 2.1302 8.6758 5.742 11.312l-2.348 3.23c-8.0258-5.852-9.788-17.103-3.9359-25.128 5.8521-8.0259 17.102-9.7881 25.128-3.936 1.3516 0.9856 2.5591 2.1548 3.5876 3.4741l-3.149 2.46c-2.645-3.5-6.713-5.5-11.023-5.5zm0-48c-7.7259-0.00659-13.994 6.251-14.001 13.977-0.00387 4.4727 2.131 8.6772 5.7441 11.313l-2.351 3.23c-8.0285-5.8474-9.7966-17.096-3.949-25.125s17.096-9.7966 25.125-3.949c1.0175 0.74097 1.9544 1.5869 2.7953 2.5237l-2.969 2.6699c-2.648-3-6.428-4.7-10.394-4.7zm0-48c-7.7259-0.00659-13.994 6.251-14.001 13.977-0.00387 4.4727 2.131 8.6772 5.7441 11.313l-2.351 3.23c-8.035-5.8413-9.8132-17.091-3.9718-25.125s17.09-9.8132 25.125-3.9719c0.68661 0.49927 1.337 1.0464 1.9464 1.6374l-2.777 2.8799c-2.6-2.5-6.086-3.9-9.714-3.9zm0-48c-7.7259-0.00659-13.994 6.251-14.001 13.977-0.00387 4.4727 2.131 8.6772 5.7441 11.313l-2.351 3.23c-8.0271-5.856-9.7872-17.11-3.9313-25.137 5.856-8.0273 17.11-9.7874 25.138-3.9314 0.33146 0.2417 0.65455 0.49487 0.9687 0.75879l-2.568 3c-2.517-2.1-5.706-3.3-9-3.3zm0-48c-7.7259-0.00659-13.994 6.251-14.001 13.977-0.00387 4.4727 2.131 8.6772 5.7441 11.313l-2.351 3.23c-8.0275-5.8484-9.794-17.097-3.9455-25.125 5.8484-8.0276 17.097-9.794 25.125-3.9456l-2.349 3.23c-2.388-1.8-5.267-2.7-8.223-2.7zm0-48c-7.7259-0.00659-13.994 6.251-14.001 13.977-0.00387 4.4727 2.131 8.6772 5.7441 11.313l-2.351 3.23c-8.0265-5.8484-9.7923-17.096-3.9439-25.123 5.5616-7.6328 16.08-9.6628 24.083-4.6472l-2.118 3.3899c-2.219-1.5-4.79-2.2-7.413-2.2zm0-48c-7.7265-0.0061-13.995 6.2524-14.001 13.979-0.00352 4.4712 2.1304 8.6748 5.742 11.311l-2.355 3.24c-8.0272-5.8596-9.7842-17.117-3.9246-25.144 5.2816-7.2354 15.081-9.4841 22.989-5.2756l-1.878 3.53c-2.023-1-4.28-1.6-6.572-1.6zm0-48c-7.7143-0.01782-13.982 6.2216-14 13.936-0.01032 4.4836 2.1323 8.6997 5.7601 11.334l-2.372 3.26c-8.0277-5.8572-9.7873-17.113-3.9302-25.141 5.0009-6.8541 14.11-9.2833 21.86-5.8294l-1.626 3.66c-1.79-0.9-3.73-1.3-5.692-1.3zm0-48c-7.7215-0.0105-13.989 6.2406-14 13.962-0.00606 4.475 2.1304 8.6825 5.7469 11.318l-2.35 3.23c-8.0298-5.8335-9.8103-17.072-3.9768-25.102 4.7228-6.501 13.187-9.0767 20.731-6.3082l-1.367 3.76c-1.531-0.6-3.151-0.9-4.784-0.9zm0-48c-7.7215-0.0116-13.99 6.2385-14.002 13.96-0.0067 4.4757 2.1298 8.684 5.7469 11.32l-2.35 3.24c-8.0286-5.8464-9.7975-17.094-3.951-25.123 3.3885-4.6532 8.7998-7.4031 14.556-7.397 1.6783-0.00012 3.3481 0.23889 4.959 0.70996l-1.1 3.84c-1.254-0.3-2.553-0.5-3.859-0.5zm0-48c-7.732 0.00049-14 6.2689-13.999 14.001 0.00029 4.4654 2.1308 8.6628 5.7351 11.299l-2.352 3.23c-8.0247-5.8677-9.7733-17.13-3.9056-25.154 3.3876-4.6 8.7816-7.3 14.522-7.3 1.2574 0.00208 2.5112 0.13281 3.742 0.39001l-0.832 3.92c-0.956-0.2-1.932-0.3-2.91-0.3zm0-48c-7.7209-0.0116-13.989 6.238-14.001 13.959-0.00672 4.4764 2.1306 8.6854 5.749 11.321l-2.349 3.23c-8.0275-5.8404-9.8004-17.083-3.9599-25.11 3.3879-4.7 8.8019-7.4 14.561-7.4 0.83664 0.00745 1.6718 0.07092 2.5 0.18994l-0.556 3.96c-0.644-0.1-1.293-0.2-1.944-0.2zm0-48c-7.7265-0.00659-13.995 6.2515-14.002 13.978-0.00384 4.4716 2.1302 8.6757 5.742 11.312l-2.351 3.23c-8.0269-5.8516-9.7904-17.102-3.9388-25.129 3.3888-4.7 8.7968-7.4 14.55-7.4 0.424 0 0.838 0.03003 1.254 0.06006l-0.279 3.99c-0.323-0.1-0.646-0.1-0.975-0.1zm-14-34c0.0009 4.465 2.1355 8.6605 5.744 11.29l-2.351 3.23c-8.0275-5.8498-9.7928-17.1-3.9429-25.127 3.3879-4.7 8.7969-7.4 14.55-7.4v4c-7.732 0-14 6.3-14 14zm0-48c0.00106 4.4648 2.1356 8.6604 5.744 11.29l-2.351 3.23c-8.024-5.8434-9.7918-17.085-3.9484-25.109 3.1292-4.297 8.0001-6.9884 13.303-7.3508l0.279 3.99c-7.333 0.6-13.023 6.6-13.027 14zm0-48c0.00106 4.4648 2.1356 8.6604 5.744 11.29l-2.351 3.23c-8.0241-5.8424-9.7927-17.083-3.9503-25.107 2.8718-3.9442 7.2238-6.5513 12.056-7.2225l0.556 3.96c-6.909 0.9-12.051 6.8-12.055 13.8zm0-48c0.0009 4.465 2.1355 8.6605 5.744 11.29l-2.351 3.23c-8.0275-5.8498-9.7928-17.1-3.9429-25.127 2.6152-3.5888 6.4656-6.083 10.81-7.0028l0.832 3.92c-6.465 1.4-11.09 7.1-11.092 13.7zm0-48c0.0009 4.465 2.1355 8.6605 5.744 11.29l-2.351 3.23c-8.0236-5.842-9.792-17.082-3.9499-25.106 2.3618-3.2438 5.7412-5.6038 9.5999-6.7041l1.1 3.84c-6.002 1.8-10.139 7.3-10.143 13.5zm0-48c0.0009 4.465 2.1355 8.6605 5.744 11.29l-2.351 3.23c-8.0225-5.8398-9.7919-17.077-3.9521-25.1 2.11-2.8986 5.0389-5.0996 8.4101-6.3201l1.367 3.76c-5.531 2-9.216 7.2-9.218 13.1zm0-48c0.0009 4.465 2.1355 8.6605 5.744 11.29l-2.351 3.23c-8.0247-5.8442-9.7923-17.087-3.9481-25.112 1.8578-2.5509 4.3545-4.5679 7.2391-5.8479l1.626 3.66c-5.051 2.2-8.308 7.2-8.31 12.7zm0-48c0.0009 4.465 2.1355 8.6605 5.744 11.29l-2.351 3.23c-8.0248-5.845-9.7919-17.089-3.9469-25.114 1.6068-2.206 3.6949-4.0173 6.1059-5.2964l1.878 3.53c-4.574 2.5-7.4326 7.2-7.43 12.4zm0-48c0.0009 4.465 2.1355 8.6605 5.744 11.29l-2.351 3.23c-8.02-5.8357-9.7908-17.068-3.9552-25.088 1.3609-1.8702 3.0703-3.4601 5.0342-4.682l2.118 3.39c-4.099 2.6-6.5908 7.1-6.59 11.9zm0-48c0.00106 4.4648 2.1356 8.6604 5.744 11.29l-2.351 3.23c-8.0196-5.8344-9.7911-17.065-3.9568-25.085 1.1136-1.5306 2.4621-2.8756 3.9958-3.9851l2.349 3.23c-3.631 2.7-5.78 6.9-5.781 11.4zm-4-144c-0.00066-4.4469 1.6529-8.735 4.639-12.03l2.969 2.67c-5.1724 5.7152-4.7324 14.541 0.98274 19.714 0.3672 0.33228 0.75184 0.64478 1.1523 0.93628l-2.351 3.23c-4.6452-3.4-7.3931-8.8-7.392-14.5zm0-48c-0.00253-4.0151 1.3462-7.9144 3.829-11.07l3.149 2.46c-4.7588 6.0625-3.7018 14.835 2.3607 19.594 0.13323 0.10461 0.26835 0.20679 0.40529 0.3064l-2.351 3.23c-4.6456-3.4-7.3939-8.8-7.393-14.5zm0-48c-0.00495-3.5888 1.0665-7.0966 3.076-10.07l3.317 2.24c-4.2098 6.2367-2.7289 14.687 3.351 19.12l-2.351 3.23c-4.6456-3.3-7.3939-8.7-7.393-14.4zm0-288c0.00548-1.0477 0.10218-2.093 0.289-3.124l3.936 0.69397c-0.95802 5.2545 1.1891 10.592 5.519 13.719l-2.351 3.231c-4.6447-3.38-7.3927-8.78-7.393-14.52zm0-48c0.00081-0.62866 0.03419-1.2568 0.1-1.882l3.978 0.41803c-0.051 0.48-0.077 0.97-0.078 1.46 0.00058 4.4647 2.1353 8.6602 5.744 11.289l-2.351 3.231c-4.6447-3.38-7.3927-8.78-7.393-14.52zm0-48c0-0.21198 0.024-0.41803 0.032-0.62799l3.993 0.13898c-0.008 0.16-0.025 0.33-0.025 0.49 0.00058 4.4647 2.1353 8.6602 5.744 11.289l-2.351 3.231c-4.6447-3.38-7.3927-8.78-7.393-14.52zm1.33-281.27l3.7-1.5c0.97931 2.414 2.6095 4.5088 4.709 6.051l-2.351 3.231c-2.7015-1.9827-4.7992-4.6768-6.059-7.782h0.001zm0.512-46.85l3.59-1.751c0.99938 2.0425 2.4781 3.8129 4.31 5.16l-2.351 3.231c-2.359-1.73-4.2627-4.01-5.549-6.64zm0.6-46.9l3.457-2c0.97149 1.6825 2.2798 3.1464 3.843 4.3l-2.351 3.231c-2.013-1.4823-3.6979-3.3647-4.949-5.529zm4.017-235.23l2.565-3.053c0.238 0.2 0.468 0.408 0.718 0.592l-2.351 3.228c-0.325-0.238-0.623-0.508-0.932-0.767zm3.283 45.537l-2.351 3.231c-0.65891-0.49069-1.284-1.0252-1.871-1.6l2.773-2.872c0.455 0.44 0.939 0.86 1.449 1.24zm0 48l-2.351 3.231c-0.99684-0.73767-1.9156-1.5754-2.742-2.5l2.967-2.672c0.641 0.72 1.353 1.37 2.126 1.94zm0 48l-2.351 3.231c-1.3336-0.98749-2.5257-2.153-3.543-3.464l3.145-2.457c0.789 1.02 1.714 1.92 2.749 2.69zm0 48l-2.351 3.231c-1.6801-1.2292-3.1366-2.7378-4.306-4.46l3.314-2.236c0.908 1.34 2.039 2.51 3.343 3.47zm0 192l-2.351 3.231c-3.0471-2.2362-5.3151-5.3727-6.484-8.967l3.8-1.234c0.908 2.79 2.669 5.23 5.035 6.97zm0 48l-2.351 3.231c-3.4033-2.4836-5.8296-6.0803-6.858-10.166l3.881-0.96701c0.799 3.18 2.684 5.98 5.328 7.91zm0 48l-2.351 3.231c-3.7459-2.7427-6.2863-6.8275-7.09-11.4l3.933-0.69299c0.625 3.55 2.598 6.73 5.508 8.86zm0 48l-2.351 3.231c-4.1035-2.9952-6.7476-7.5874-7.278-12.64l3.975-0.41803c0.412 3.93 2.466 7.5 5.654 9.83zm0 48l-2.351 3.231c-4.4569-3.2542-7.1693-8.3776-7.355-13.893l3.992-0.14001c0.144 4.28 2.251 8.27 5.714 10.8zm-9.192 176.36l3.878 0.966c-1.4047 5.5184 0.70214 11.335 5.315 14.674l-2.351 3.231c-5.9363-4.29-8.649-11.77-6.842-18.87zm0.334 46.79l3.8 1.236c-1.8768 5.7505 0.16425 12.055 5.055 15.615l-2.351 3.231c-6.2925-4.59-8.919-12.7-6.504-20.09zm0.432 46.82l3.707 1.5c-2.4114 5.9407-0.46495 12.76 4.719 16.533l-2.351 3.231c-6.6718-4.85-9.1782-13.62-6.075-21.26zm0.52 46.86l3.592 1.751c-2.9901 6.0839-1.169 13.437 4.315 17.422l-2.351 3.231c-7.0566-5.1213-9.402-14.579-5.556-22.404zm7.906 67.18l-2.351 3.23c-7.4394-5.4034-9.5857-15.558-4.969-23.51l3.461 1.99c-3.5892 6.1851-1.923 14.082 3.859 18.29zm-4.242 167.8l2.777 2.87c-5.5599 5.3525-5.728 14.199-0.37547 19.759 0.56437 0.58618 1.1789 1.1221 1.8365 1.6013l-2.351 3.23c-8.0196-5.8345-9.791-17.065-3.9566-25.085 0.6186-0.9 1.3116-1.7 2.0696-2.4zm4.238 72.2l-2.351 3.23c-8.0243-5.8439-9.7919-17.086-3.948-25.111 0.86254-1.1843 1.8667-2.2588 2.99-3.1995l2.57 3.07c-5.9176 4.9551-6.6979 13.769-1.7428 19.687 0.73088 0.8728 1.5657 1.6531 2.4858 2.3235h-0.004zm8.262 2178.7c9.9312-0.00952 17.99 8.0337 17.999 17.965 0.00547 5.7564-2.7452 11.167-7.3991 14.555l-2.35-3.23c6.2539-4.5542 7.6317-13.316 3.0775-19.57s-13.316-7.6318-19.57-3.0774c-6.2539 4.5542-7.6317 13.316-3.0775 19.57 0.85588 1.1755 1.8895 2.2102 3.0638 3.0676l-2.352 3.24c-8.0286-5.8464-9.7975-17.094-3.9511-25.123 3.3891-4.8 8.8021-7.5 14.559-7.5z" fill="#cccccc"/>
 <path fill="#cccccc" d="m28.365 2810.4c-1.3479 2.4102-4.3944 3.2713-6.8045 1.9231-2.4101-1.3479-3.2711-4.3942-1.9232-6.8044 1.3479-2.4099 4.3944-3.271 6.8045-1.9231 0.70314 0.3933 1.3008 0.9504 1.7422 1.6245l9.808 2.25zm-3.842-45.4c-2.7465 0.2868-5.2056-1.7068-5.4925-4.4534-0.28694-2.7466 1.7069-5.2056 4.4534-5.4924 1.7366-0.1814 3.442 0.5561 4.4991 1.9458l9.94 1.57-9.4 3.5901c-0.74418 1.5816-2.2614 2.659-4 2.8399zm13.4-6.43zm-13.055-41.62c-2.7196 0.4788-5.3124-1.3376-5.7913-4.0571-0.47887-2.7197 1.3376-5.3125 4.0572-5.7913 1.721-0.3032 3.4753 0.3142 4.6272 1.6284l10.025 0.8702-9.125 4.24c-0.6326 1.6289-2.0708 2.8083-3.792 3.1098zm12.919-7.3501zm-9.01-44.09c-0.81778 2.6375-3.6189 4.1128-6.2564 3.295-2.6376-0.8177-4.1128-3.6189-3.295-6.2564 0.81779-2.6377 3.6189-4.1128 6.2564-3.2949 0.76916 0.2383 1.4694 0.6592 2.041 1.2263l10.061 0.1599zm-3.232-44.72c-2.6276 0.8491-5.4461-0.5926-6.2953-3.2202-0.84917-2.6275 0.59254-5.4461 3.2202-6.2952 1.6577-0.5359 3.4748-0.1699 4.7961 0.9653l10.048-0.54-8.446 5.47c-0.39711 1.705-1.6572 3.0783-3.322 3.6203zm0.328-48.12c-2.5622 1.0297-5.4741-0.2124-6.504-2.7745-1.0299-2.5622 0.21231-5.4741 2.7745-6.5041 1.616-0.6494 3.4535-0.4114 4.8505 0.6286l9.986-1.2299-8.043 6.04c-0.27854 1.7278-1.4403 3.1843-3.063 3.8401zm11.107-9.8899v0.01zm-10.788-38.26c-2.4824 1.2094-5.4754 0.1777-6.6849-2.305-1.2095-2.4824-0.17762-5.4753 2.3048-6.6848 1.5703-0.7651 3.426-0.6553 4.8951 0.2898l9.875-1.9299-7.6 6.5901c-0.1556 1.7434-1.2148 3.2771-2.79 4.04zm10.391-10.63zm-10.083-37.6c-2.3907 1.3821-5.4491 0.5642-6.8311-1.8264-1.382-2.3907-0.56432-5.449 1.8264-6.8311 1.5152-0.876 3.3782-0.8957 4.9117-0.052l9.716-2.6-7.123 7.1c-0.03874 1.7468-0.98656 3.3467-2.5 4.22zm9.625-11.3zm-9.325-36.9c-2.291 1.5415-5.398 0.9341-6.9396-1.3569s-0.93406-5.3982 1.357-6.9397c1.4475-0.9739 3.2979-1.1231 4.8826-0.3933l9.51-3.2901-6.61 7.5901c0.08181 1.7466-0.75174 3.4099-2.2 4.3899zm8.81-11.98zm-8.528-36.23c-2.1786 1.6968-5.3203 1.3062-7.017-0.8725-1.6968-2.1785-1.3062-5.3201 0.87247-7.0169 1.3767-1.0722 3.2129-1.3491 4.8446-0.7307l9.258-3.9399-6.065 8.03c0.20415 1.7378-0.51492 3.4558-1.896 4.53zm7.953-12.56zm-7.686-35.6c-2.0554 1.8442-5.2166 1.6728-7.0607-0.3826-1.8442-2.0552-1.6729-5.2166 0.38247-7.0606 1.2978-1.1645 3.1084-1.5688 4.7782-1.0668l8.96-4.5801-5.491 8.4299c0.32514 1.7212-0.27067 3.4876-1.572 4.6602zm7.058-13.09zm-6.807-35.1c-1.9185 1.9861-5.0839 2.041-7.07 0.1225-1.9861-1.9187-2.041-5.0839-0.12245-7.07 1.2143-1.2571 2.9969-1.7889 4.7015-1.4026l8.619-5.19-4.889 8.7901c0.44759 1.6911-0.02244 3.4929-1.239 4.75zm6.128-13.54zm-5.894-34.8c-1.7723 2.1176-4.9257 2.3977-7.0434 0.6255-2.1177-1.7725-2.3977-4.9258-0.62539-7.0435 1.1243-1.3435 2.8697-2.0005 4.6008-1.7319l8.234-5.8-4.264 9.1201c0.56368 1.6543 0.22034 3.4827-0.905 4.8199zm5.166-13.9zm-4.953-34.33c-1.6223 2.2347-4.7489 2.7312-6.9836 1.1089s-2.7311-4.749-1.1089-6.9836c1.0276-1.4155 2.7203-2.1912 4.4634-2.0452l7.813-6.3501-3.617 9.3899c0.67663 1.6143 0.46127 3.4646-0.568 4.8801zm4.183-14.27zm-3.988-34.02c-1.4638 2.3416-4.5486 3.0532-6.8901 1.5894-2.3416-1.4637-3.0532-4.5486-1.5894-6.8902 0.92633-1.4817 2.5591-2.3725 4.3065-2.3491l7.351-6.8701-2.954 9.6201c0.78773 1.5601 0.70239 3.4185-0.225 4.8999zm3.178-14.52zm-3-33.78c-1.2969 2.4379-4.3246 3.3627-6.7625 2.0659-2.4379-1.2969-3.3629-4.3245-2.066-6.7625 0.82012-1.5417 2.3851-2.5437 4.1285-2.6435l6.854-7.3701-2.275 9.8c0.89536 1.5037 0.93936 3.3662 0.116 4.9104zm2.157-14.71zm-2-33.61c-1.1211 2.5236-4.0757 3.6605-6.5993 2.5394-2.5236-1.1209-3.6606-4.0756-2.5395-6.5992 0.71007-1.5984 2.2037-2.7096 3.9388-2.9302l6.323-7.8299-1.586 9.9399c0.9954 1.4349 1.1676 3.2861 0.454 4.8801zm1.126-14.82zm-7.4-30.51c-2.5974-0.9374-3.9432-3.803-3.0057-6.4004 0.5967-1.6535 2.0177-2.872 3.7427-3.2096l5.762-8.25-0.902 10.03c1.73 2.1523 1.3877 5.2996-0.76458 7.0297-1.3638 1.0961-3.2015 1.3997-4.8454 0.8002zm6.5-17.86zm0.019-33.46c-0.76561 2.6532-3.5371 4.1834-6.1902 3.4177-2.6532-0.7656-4.1833-3.5371-3.4177-6.1902 0.48355-1.6757 1.8054-2.9784 3.488-3.4375l5.172-8.63-0.188 10.06c1.1826 1.2883 1.6075 3.1002 1.121 4.7799zm-0.948-14.84zm-1.986-1518c-1.6214 0.65549-3.4674 0.4162-4.868-0.63101l-9.986 1.239 8.043-6.047c0.43886-2.7263 3.0048-4.5807 5.7311-4.1418 2.7263 0.43884 4.5807 3.0047 4.1418 5.7311-0.27905 1.7336-1.447 3.1937-3.0769 3.8467zm-14.854 0.60801zm15.158-48.75c-1.5715 0.76718-3.4296 0.65759-4.9-0.289l-9.875 1.931 7.6-6.592c0.25299-2.7498 2.6872-4.7739 5.437-4.5209s4.7739 2.6873 4.5209 5.4371c-0.15992 1.7382-1.2148 3.2672-2.7829 4.0338zm-14.775 1.642zm10.175-49.75-9.716 2.61 7.124-7.11c0.05932-2.7608 2.3455-4.9508 5.1062-4.8914 2.7608 0.0593 4.9508 2.3455 4.8914 5.1063-0.05931 2.7608-2.3455 4.9507-5.1062 4.8914-0.80492-0.0173-1.5938-0.22873-2.2994-0.61627zm-9.717 2.61zm10.025-50.46-9.51 3.29 6.61-7.59c-0.13272-2.7582 1.9957-5.1018 4.7539-5.2345 2.7582-0.13272 5.1018 1.9957 5.2345 4.7539 0.13272 2.7582-1.9957 5.1018-4.7539 5.2345-0.80335 0.0387-1.6042-0.11703-2.3345-0.45392zm-9.511 3.287zm11.195-242.84-7.812 6.342 3.617-9.39c-1.0685-2.5463 0.1295-5.4767 2.6758-6.5452s5.4767 0.1295 6.5452 2.6758-0.1295 5.4767-2.6758 6.5452c-0.74205 0.31138-1.5483 0.43905-2.3502 0.37218zm-7.813 6.342zm4.4 33.46c1.7757-2.1148 4.9296-2.3896 7.0444-0.61385s2.3896 4.9296 0.61384 7.0444c-1.1234 1.3379-2.8636 1.9924-4.5902 1.7265l-8.239 5.776 4.264-9.115c-0.56261-1.6556-0.21944-3.4849 0.905-4.824zm-5.171 13.933zm5.4 33.8c1.9189-1.9858 5.0843-2.0399 7.07-0.12099s2.0399 5.0843 0.12099 7.07c-1.2141 1.2564-2.996 1.7879-4.7 1.402l-8.619 5.193 4.889-8.8c-0.44315-1.6886 0.02649-3.486 1.239-4.742v-0.002zm-6.128 13.544zm6.379 34.213c2.0512-1.8488 5.2128-1.6846 7.0616 0.36664s1.6846 5.2128-0.36664 7.0616c-1.3004 1.1721-3.1192 1.5786-4.7949 1.0718l-8.96 4.579 5.491-8.433c-0.323-1.7163 0.27292-3.4768 1.572-4.644zm-7.051 13.086zm7.325 34.692c2.1775-1.6983 5.3194-1.3098 7.0176 0.86769 1.6983 2.1775 1.3098 5.3194-0.86769 7.0176-1.3778 1.0746-3.2165 1.3519-4.8499 0.73169l-9.258 3.943 6.066-8.03c-0.20599-1.7362 0.50992-3.454 1.888-4.53h0.004zm-7.953 12.56zm9.487 226.62c2.6267-0.85199 5.4467 0.5867 6.2987 3.2134 0.85199 2.6267-0.5867 5.4468-3.2134 6.2987-1.6612 0.53882-3.4832 0.17181-4.8063-0.96814l-10.048 0.539 8.446-5.471c0.39896-1.701 1.6569-3.0704 3.318-3.612zm0.335 47.9c2.6794-0.668 5.393 0.96255 6.061 3.642 0.66801 2.6794-0.96256 5.393-3.642 6.061-1.6967 0.423-3.4911-0.0711-4.732-1.303l-10.061-0.164 8.807-4.868c0.51915-1.6663 1.8696-2.9414 3.563-3.364zm0.341 47.928c2.7196-0.47888 5.3124 1.3376 5.7913 4.0572 0.47887 2.7195-1.3376 5.3124-4.0572 5.7913-1.721 0.30304-3.4753-0.31439-4.6272-1.6285l-10.025-0.86499 9.125-4.241c0.63336-1.6271 2.0696-2.806 3.789-3.1099zm-12.919 7.355zm13.265 40.6c2.7465-0.28693 5.2056 1.7069 5.4925 4.4534 0.28694 2.7465-1.7069 5.2056-4.4534 5.4925-1.7366 0.18146-3.442-0.55615-4.4991-1.9459l-9.941-1.562 9.4-3.6c0.7454-1.579 2.2605-2.6548 3.997-2.838zm0.344 47.98c2.7598-0.0954 5.0744 2.0644 5.1698 4.8243 0.09542 2.7598-2.0645 5.0743-4.8242 5.1697-1.746 0.0604-3.3968-0.79492-4.3545-2.256l-9.807-2.252 9.627-2.931c0.854-1.53 2.442-2.5 4.189-2.56zm0.349 48c2.7597 0.0972 4.9181 2.4132 4.8209 5.1728-0.09719 2.7597-2.4132 4.9182-5.1729 4.821-1.7462-0.0615-3.3336-1.0301-4.1871-2.5548l-9.627-2.93 9.808-2.252c0.958-1.47 2.611-2.32 4.358-2.26zm-14.1 51.534zm14.446-3.51c2.7463 0.28833 4.7389 2.7485 4.4505 5.4948-0.28836 2.7463-2.7485 4.7389-5.4948 4.4505-1.7402-0.18268-3.2583-1.2618-4.0028-2.8453l-9.4-3.595 9.94-1.562c1.0603-1.3907 2.7702-2.1263 4.509-1.94zm0.346 48.048c2.7192 0.48108 4.5335 3.0754 4.0525 5.7946-0.48108 2.7192-3.0754 4.5336-5.7946 4.0524-1.7196-0.3042-3.1558-1.4835-3.7888-3.111l-9.125-4.242 10.026-0.86499c1.1534-1.3148 2.9099-1.9314 4.632-1.626zm0.341 48.073c2.6791 0.66919 4.3085 3.3835 3.6393 6.0627-0.6692 2.6791-3.3835 4.3084-6.0626 3.6392-1.6948-0.42334-3.0458-1.7005-3.5636-3.3689l-8.807-4.868 10.062-0.16302c1.2422-1.2311 3.0374-1.7237 4.734-1.299zm-14.522 48.529zm14.86-0.42999c2.6259 0.85437 4.0621 3.6757 3.2077 6.3016-0.85435 2.6259-3.6757 4.0621-6.3016 3.2077-1.6612-0.54047-2.9199-1.9088-3.3201-3.6093l-8.445-5.47 10.048 0.539c1.3239-1.142 3.1482-1.5094 4.811-0.96906zm-14.526 47.512zm14.853 0.607c2.5599 1.0356 3.7956 3.9503 2.76 6.5101-1.0356 2.5599-3.9503 3.7956-6.5102 2.7601-1.6191-0.65497-2.7791-2.1074-3.0599-3.8312l-8.043-6.046 9.986 1.238c1.4006-1.0472 3.2466-1.2864 4.868-0.63098zm-14.456 46.5zm14.775 1.642c2.4814 1.2117 3.5107 4.2055 2.299 6.6869s-4.2055 3.5107-6.6869 2.299c-1.5696-0.76642-2.6255-2.2964-2.7851-4.0359l-7.6-6.592 9.876 1.932c1.4697-0.94617 3.3269-1.0562 4.898-0.29004zm-14.315 45.5zm14.624 2.67c2.3911 1.3814 3.2096 4.4396 1.8282 6.8307-1.3814 2.391-4.4396 3.2096-6.8306 1.8282-1.513-0.9-2.459-2.5-2.498-4.3l-7.124-7.11 9.716 2.62c1.5305-0.8493 3.3951-0.8302 4.908 0.05zm-14.106 44.5zm14.4 3.6801c2.288 1.546 2.8895 4.6543 1.3434 6.9423-1.5461 2.2881-4.6542 2.8895-6.9423 1.3433-1.4446-0.976-2.2764-2.6341-2.1951-4.3757l-6.61-7.59 9.51 3.2901c1.5889-0.7373 3.4477-0.5894 4.9 0.3899zm-13.828 43.53zm14.111 4.6801c2.1754 1.7009 2.56 4.8432 0.85908 7.0187-1.7009 2.1754-4.8433 2.56-7.0187 0.8591-1.3764-1.0762-2.0912-2.7929-1.8854-4.5278l-6.066-8.0301 9.258 3.94c1.6362-0.6178 3.4762-0.3374 4.854 0.74zm-13.477 42.5zm13.75 5.65c2.0514 1.8485 2.2159 5.0102 0.36734 7.0616-1.8486 2.0513-5.0101 2.2159-7.0615 0.3673-1.2981-1.1697-1.8914-2.9323-1.5648-4.6488l-5.49-8.4301 8.96 4.58c1.6726-0.4999 3.4847-0.095 4.785 1.07h0.004zm-13.071 41.65zm13.322 6.5999c1.9165 1.9881 1.8586 5.1533-0.12949 7.0698-1.988 1.9167-5.1534 1.8587-7.0699-0.1293-1.2136-1.2589-1.6814-3.0602-1.2336-4.7505l-4.889-8.7901 8.619 5.19c1.7062-0.3865 3.4901 0.1485 4.702 1.4101zm-12.601 40.9zm12.83 7.51c1.7734 2.1167 1.4951 5.2703-0.62163 7.0437-2.1167 1.7735-5.2703 1.4952-7.0437-0.6215-1.1223-1.3396-1.4638-3.1679-0.90068-4.8222l-4.264-9.11 8.236 5.7801c1.7288-0.2693 3.4723 0.3872 4.594 1.7299zm-12.06 39.88zm12.275 8.3901c1.6216 2.2351 1.1242 5.3617-1.1109 6.9832-2.2352 1.6216-5.3617 1.1242-6.9832-1.1109-1.026-1.4142-1.2394-3.2615-0.56282-4.8723l-3.617-9.39 7.813 6.3499c1.7419-0.1496 3.4348 0.6245 4.461 2.0401zm-11.464 39zm11.66 9.22c1.4631 2.3419 0.75072 5.4265-1.5912 6.8896-2.3419 1.4632-5.4266 0.7508-6.8897-1.5912-0.92551-1.4814-1.0108-3.3383-0.22507-4.8984l-2.954-9.62 7.351 6.87c1.7484-0.025 3.3826 0.8663 4.308 2.35zm-10.813 38.29zm10.988 10.01c1.296 2.4384 0.37 5.4657-2.0684 6.7619-2.4384 1.296-5.4657 0.37-6.7618-2.0685-0.82005-1.5429-0.77525-3.4018 0.11817-4.9033l-2.275-9.8001 6.854 7.37c1.7453 0.094 3.3136 1.0957 4.132 2.64zm-10.109 37.56zm10.263 10.76c1.1214 2.5234-0.01512 5.4783-2.5386 6.5997s-5.4782-0.015-6.5997-2.5385c-0.70924-1.596-0.53439-3.4463 0.46124-4.8811l-1.586-9.94 6.323 7.83c1.7359 0.2177 3.2305 1.3297 3.938 2.9298zm-8.468 46.9-0.889-10.03 5.762 8.25c2.7124 0.5353 4.4773 3.1681 3.942 5.8805-0.53532 2.7125-3.1681 4.4774-5.8805 3.942-2.7124-0.5353-4.4773-3.1681-3.942-5.8805 0.15614-0.7911 0.50111-1.5329 1.0056-2.1621zm-0.889-10.03zm1.117 57.76-0.188-10.06 5.172 8.63c2.6643 0.726 4.2356 3.4744 3.5096 6.1387s-3.4744 4.2356-6.1386 3.5095c-2.6643-0.7259-4.2356-3.4743-3.5096-6.1386 0.2114-0.7758 0.6068-1.4892 1.1526-2.0796zm-0.188-10.2zm0.434 57.82 0.515-10.05 4.558 8.97c2.6072 0.91 3.983 3.7612 3.0729 6.3684-0.91003 2.6072-3.7613 3.9831-6.3684 3.073-2.6072-0.91-3.983-3.7613-3.0729-6.3685 0.26477-0.7585 0.70845-1.4421 1.2934-1.9928zm0.515-10.05zm7.8 302.73c-0.57389 2.7012-3.2288 4.4257-5.93 3.8517-2.7011-0.5738-4.4256-3.2288-3.8517-5.9299 0.36329-1.7099 1.5932-3.1059 3.2437-3.6818l4.558-8.97 0.515 10.04c1.2736 1.2004 1.8288 2.9781 1.465 4.69zm-1.981-14.73zm2.041-33.5c-0.39006 2.7337-2.9224 4.6336-5.6561 4.2436-2.7337-0.3901-4.6337-2.9225-4.2436-5.6563 0.24628-1.7259 1.3739-3.1991 2.9757-3.8874l3.921-9.26 1.214 9.98c1.3562 1.1089 2.035 2.8454 1.79 4.5801zm-3-14.56zm3.04-33.79c-0.19611 2.7543-2.588 4.8283-5.3425 4.6323-2.7544-0.1962-4.8284-2.588-4.6323-5.3426 0.12393-1.7406 1.1464-3.2907 2.6978-4.0898l3.265-9.52 1.908 9.88c1.4276 1.0116 2.2241 2.6948 2.101 4.4402zm-4.012-14.32zm-3.862-86.12 1.908-9.88 3.265 9.52c2.4546 1.2652 3.4188 4.2806 2.1536 6.7351-1.2652 2.4546-4.2806 3.4189-6.7351 2.1537-2.4546-1.2652-3.4188-4.2806-2.1536-6.7352 0.36831-0.7145 0.90347-1.3297 1.5601-1.7935zm1.908-9.88zm5.975 62c-0.0027 2.7615-2.2435 4.9978-5.0049 4.995-2.7614 0-4.9978-2.2434-4.995-5.0049 0.0017-1.7459 0.91413-3.3646 2.407-4.2701l2.593-9.7 2.593 9.72c1.4944 0.9087 2.4068 2.531 2.407 4.28zm-5-14zm4.952-82.7c0.38726 2.7341-1.5153 5.2645-4.2494 5.6517-2.7341 0.3873-5.2645-1.5153-5.6518-4.2494-0.24527-1.7316 0.43208-3.4656 1.7862-4.5724l1.215-9.99 3.921 9.26c1.6054 0.6912 2.7345 2.1693 2.979 3.9001zm-6.9-13.16zm3.823 1449.2c1.6227 0.6557 2.7845 2.1123 3.063 3.8401l8.044 6.04-9.986-1.23c-2.2149 1.6492-5.3473 1.1907-6.9965-1.0242-1.6492-2.2151-1.1906-5.3474 1.0243-6.9965 1.3968-1.0401 3.2342-1.2784 4.8502-0.6292zm11.107 9.8799zm-10.789 38.3c1.571 0.7678 2.628 2.2988 2.789 4.04l7.6 6.6001-9.875-1.9299c-2.3258 1.4888-5.418 0.8101-6.9067-1.5156-1.4887-2.3259-0.81009-5.4182 1.5157-6.9068 1.465-0.9377 3.312-1.0466 4.877-0.2878zm10.391 10.64zm-10.084 37.53c1.5134 0.8733 2.4613 2.4732 2.5 4.22l7.124 7.1101-9.716-2.6201c-2.4195 1.331-5.4599 0.4485-6.7908-1.971-1.3309-2.4196-0.44848-5.4599 1.971-6.791 1.5335-0.8435 3.3964-0.8237 4.9118 0.052zm9.625 11.4zm-17.059 280.19c0-0.03 0.009-0.06 0.015-0.09l0.012-0.06 0.01-0.05c0.004-0.02 0.014-0.07 0.021-0.1001 0.001-0.01 0.001-0.013 0-0.02 0.14515-0.6238 0.40747-1.2141 0.773-1.74 0 0 0.006 0 0.009-0.01s0.035-0.05 0.053-0.07l0.021-0.03 0.043-0.06c0.011-0.01 0.022-0.03 0.033-0.04s0.022-0.03 0.033-0.04l0.046-0.06 0.023-0.03c0.02198-0.021 0.04175-0.045 0.059-0.07 0 0 0.009-0.01 0.013-0.01 0.023-0.03 0.047-0.05 0.071-0.08v-0.01c0.17013-0.1826 0.35291-0.353 0.547-0.51 0.032-0.03 0.064-0.05 0.1-0.08 0.0068 0.0008 0.0131 0 0.015-0.01l0.083-0.06s0.006 0 0.009-0.01c0.01145 0 0.02139-0.01 0.028-0.02 0.02276-0.01 0.04372-0.023 0.062-0.04 0.022-0.01 0.044-0.03 0.066-0.04l0.034-0.03 0.1-0.06c0.38906-0.2464 0.8118-0.4351 1.255-0.5601 0 0 0-0.01 0.006-0.01 0.033-0.01 0.066-0.01 0.1-0.02 0.0049-0.01 0.01336-0.011 0.022-0.01 0.027-0.01 0.055-0.01 0.082-0.02s0.026-0.01 0.04-0.01 0.043-0.01 0.065-0.01 0.038-0.01 0.058-0.02c0.01633 0 0.03275 0 0.047-0.01 0.025 0 0.05-0.01 0.075-0.01 0.01101 0 0.02208 0 0.03-0.01 0.031 0 0.061-0.01 0.092-0.01h0.013c0.39308-0.063 0.79256-0.077 1.189-0.04h0.01c0.03629 0 0.07263 0 0.108 0.01h0.035c0.02652 0.01 0.05429 0.012 0.082 0.01 0.01927 0.01 0.04016 0.012 0.061 0.01 0.018 0 0.037 0.01 0.055 0.01 0.03119 0 0.06189 0.01 0.091 0.02h0.025c0.71132 0.1277 1.3867 0.4075 1.98 0.8201 0 0.01 0 0.01 0.006 0.01 0.02364 0.02 0.04987 0.037 0.078 0.05 0.0052 0.01 0.01377 0.017 0.024 0.02 0.02 0.02 0.04 0.03 0.06 0.05l0.04 0.03 0.044 0.03c0.018 0.02 0.036 0.03 0.055 0.05s0.02 0.01 0.029 0.02l0.067 0.06c0.005 0 0.011 0.01 0.016 0.01 0.02388 0.026 0.05035 0.05 0.079 0.07 0 0.01 0 0.01 0.005 0.01 0.21534 0.1955 0.4131 0.4096 0.591 0.6399 0 0.01 0.005 0.01 0.008 0.02 0.02454 0.024 0.04664 0.051 0.066 0.08 0 0.01 0 0.01 0.006 0.01s0.007 0.01 0.01 0.02c0.02585 0.032 0.04925 0.065 0.07 0.1001 0.01244 0.011 0.02262 0.025 0.03 0.04 0.01907 0.025 0.03581 0.052 0.05 0.08 0.03641 0.051 0.0698 0.1047 0.1 0.1599l0.051 0.09 0.019 0.03 0.049 0.09 0.015 0.03c0.05133 0.1001 0.099 0.1999 0.143 0.3l0.013 0.03 0.036 0.09c0.006 0.02 0.012 0.03 0.019 0.05s0.022 0.05 0.032 0.08l0.021 0.06c0.014 0.04 0.027 0.07 0.039 0.1101l0.028 0.09c0.0042 0.017 0.0099 0.034 0.017 0.05 0.0087 0.03 0.01733 0.06 0.026 0.09 0.0034 0.017 0.0081 0.034 0.014 0.05 0.01067 0.04 0.021 0.08 0.031 0.1201v0.02c0.012 0.05 0.023 0.1 0.033 0.1499 0.015 0.075 0 0.01 0 0.01 0.009 0.05 0.017 0.09 0.025 0.1398v0.02c0.026 0.1499 0.045 0.31 0.056 0.4599 0.012 0.1599 0.016 0.3201 0.013 0.47 0.00023 0 0.00023 0.01 0 0.01 0 0.05-0.0017 0.1-0.005 0.1499-0.00034 0-0.00034 0.01 0 0.01-0.0053 0.1001-0.01366 0.2-0.025 0.3001v0.02c-0.005 0.04-0.01 0.08-0.016 0.1299v0.03c-0.006 0.04-0.013 0.08-0.021 0.1201 0.00089 0.01 0.00089 0.013 0 0.02-0.008 0.05-0.017 0.1001-0.027 0.1399 0 0.02-0.007 0.03-0.01 0.05s-0.014 0.06-0.021 0.09l-0.014 0.06c-0.007 0.02-0.014 0.05-0.021 0.08-0.0067 0.016-0.01201 0.033-0.016 0.05-0.01133 0.04-0.023 0.08-0.035 0.1201-0.007 0.03-0.015 0.05-0.023 0.08-0.0045 0.017-0.01089 0.034-0.019 0.05-0.007 0.027-0.01566 0.054-0.026 0.08-0.006 0.02-0.012 0.03-0.019 0.05-0.0081 0.027-0.01818 0.054-0.03 0.08 0 0.01 0 0.01-0.005 0.02-0.015 0.03-0.029 0.07-0.044 0.1101l3.617 9.3899-1.3-1.06-0.000128-0.04-6.854-5.1c-0.145 0-0.291 0-0.435-0.01-0.1-0.01-0.2-0.02-0.307-0.04h-0.024c-0.04362 0-0.0869-0.01-0.129-0.02h-0.03l-0.129-0.03h-0.012l-0.139-0.03c-0.014 0-0.028-0.01-0.042-0.01-0.03015-0.012-0.06184-0.018-0.094-0.02-0.018-0.01-0.037-0.01-0.055-0.02-0.02633-0.011-0.0544-0.018-0.083-0.02-0.019-0.01-0.037-0.01-0.055-0.02-0.04171-0.01-0.08231-0.022-0.121-0.04-0.022-0.01-0.045-0.01-0.067-0.02-0.01934-0.011-0.04082-0.018-0.063-0.02l-0.072-0.03c-0.01684-0.011-0.03602-0.018-0.056-0.02l-0.074-0.03c-0.01242-0.011-0.02771-0.018-0.044-0.02l-0.142-0.06-0.05-0.03-0.074-0.03-0.052-0.03c-0.026-0.01-0.05031-0.023-0.072-0.04l-0.057-0.03-0.11-0.06c-0.021-0.01-0.042-0.03-0.063-0.04l-0.059-0.03c-0.022-0.02-0.044-0.03-0.066-0.05l-0.052-0.03c-0.035-0.02-0.07-0.05-0.1-0.07-0.009-0.01-0.017-0.01-0.025-0.02-0.035-0.02-0.069-0.05-0.1-0.07l-0.033-0.03c-0.031-0.02-0.062-0.05-0.092-0.07-0.008-0.01-0.016-0.01-0.024-0.02-0.081-0.07-0.159-0.1299-0.236-0.2 0-0.01 0-0.01-0.006-0.01-0.0407-0.034-0.0788-0.07-0.114-0.1101-0.117-0.1101-0.229-0.24-0.336-0.3601-0.07-0.09-0.138-0.1799-0.2-0.26v-0.01c-0.0026-0.01-0.0083-0.016-0.016-0.02-0.01407-0.025-0.03048-0.048-0.049-0.07l-0.038-0.06c-0.01-0.01-0.019-0.03-0.029-0.04l-0.055-0.09s-0.005-0.01-0.008-0.01c-0.19913-0.321-0.36212-0.6631-0.486-1.02v-0.01c-0.01282-0.033-0.02384-0.066-0.033-0.1001-0.0036-0.01-0.0057-0.013-0.006-0.02-0.009-0.03-0.017-0.05-0.026-0.08 0-0.01-0.007-0.03-0.011-0.04-0.0074-0.023-0.01344-0.046-0.018-0.07-0.0065-0.016-0.0115-0.033-0.015-0.05 0-0.02-0.008-0.03-0.012-0.05s-0.012-0.05-0.018-0.07l-0.006-0.03c-0.007-0.03-0.014-0.06-0.02-0.09v-0.01c-0.12062-0.5894-0.13417-1.1958-0.04-1.7901zm13.163 12.14zm-1.158 0.8346zm-10.902-56.9c-1.7734-2.1167-1.4951-5.2703 0.62156-7.0437 2.1167-1.7735 5.2703-1.4952 7.0437 0.6215 1.1223 1.3396 1.4638 3.1678 0.90074 4.8221l4.265 9.1101-8.236-5.7801c-1.7288 0.2693-3.4723-0.3872-4.594-1.7299zm12.831 7.5zm-12.6-55.25c-1.9165-1.9881-1.8586-5.1533 0.12949-7.0698 1.988-1.9166 5.1534-1.8587 7.0699 0.1293 1.2136 1.2588 1.6814 3.0603 1.2336 4.7505l4.889 8.7901-8.619-5.19c-1.7065 0.387-3.4909-0.1482-4.703-1.4101zm13.322 6.6001zm-13.071-54.3c-2.0514-1.8487-2.2159-5.01-0.36735-7.0615 1.8485-2.0516 5.0101-2.2159 7.0615-0.3675 1.2981 1.1699 1.8914 2.9324 1.5648 4.649l5.491 8.4299-8.96-4.5801c-1.6728 0.5002-3.4854 0.095-4.786-1.0698zm13.75 5.6499zm-13.483-53.43c-2.1754-1.7009-2.56-4.8432-0.85911-7.0188 1.7009-2.1752 4.8433-2.5598 7.0187-0.8588 1.3764 1.0761 2.0912 2.7927 1.8854 4.5275l6.066 8.0301-9.258-3.94c-1.6348 0.616-3.4724 0.3355-4.849-0.74zm14.111 4.68zm-13.829-52.47c-2.2859-1.5493-2.883-4.6582-1.3337-6.9441s4.6583-2.8831 6.9442-1.3337c1.44 0.976 2.2692 2.6301 2.1895 4.3679l6.61 7.5901-9.51-3.2901c-1.5889 0.7373-3.4478 0.5892-4.9-0.3901zm14.4 3.6799zm-13.145-195c-2.6259-0.8542-4.0621-3.6758-3.2078-6.3015 0.85434-2.626 3.6757-4.0623 6.3016-3.2078 1.6613 0.5403 2.92 1.9087 3.3202 3.6094l8.446 5.47-10.048-0.54c-1.324 1.1425-3.1487 1.5104-4.812 0.9699zm14.86-0.4299zm-14.524-47.48c-2.6792-0.6687-4.3092-3.3826-3.6405-6.062 0.66866-2.6792 3.3827-4.3091 6.0619-3.6404 1.6964 0.4234 3.0484 1.7022 3.5656 3.3723l8.807 4.8701-10.061 0.16c-1.2408 1.2329-3.0365 1.7263-4.733 1.3zm0.341-47.93c-2.7194-0.4798-4.5351-3.073-4.0554-5.7925 0.47969-2.7195 3.0731-4.5352 5.7925-4.0554 1.7231 0.3039 3.1619 1.4863 3.7939 3.1179l9.125 4.24-10.025 0.8701c-1.1521 1.3157-2.91 1.9304-4.631 1.6196zm14.656-2.49zm-14.31-45.46c-2.7463-0.2883-4.7389-2.7485-4.4505-5.4949 0.28839-2.7463 2.7485-4.7387 5.4948-4.4504 1.7401 0.1826 3.2582 1.2617 4.0026 2.8452l9.4 3.5901-9.941 1.5701c-1.0598 1.3896-2.7682 2.125-4.506 1.9397zm0.348-48c-2.7597-0.097-4.9179-2.4136-4.8204-5.1733 0.09748-2.7598 2.4137-4.918 5.1734-4.8203 1.7456 0.061 3.3326 1.0297 4.186 2.5537l9.626 2.9299-9.807 2.25c-0.95904 1.4619-2.6106 2.3183-4.358 2.26zm14.166-4.51z"/>
</svg>
