<svg xmlns="http://www.w3.org/2000/svg" width="19" height="19" viewBox="0 0 19 19">
  <circle fill="#0b273a" cx="9.5" cy="9.5" r="9.5"/>
  <path fill="#42aff6" fill-rule="evenodd" d="M9.5,19A9.5,9.5,0,1,1,19,9.5,9.5,9.5,0,0,1,9.5,19Zm0-17A7.5,7.5,0,0,0,2,9.5a7.427,7.427,0,0,0,.106,1.056A2.387,2.387,0,0,0,2,11a3.808,3.808,0,0,0,1.712,3.216A7.486,7.486,0,1,0,9.5,2Zm2.961,12H6.538A0.551,0.551,0,0,1,6,13.438V5.563A0.551,0.551,0,0,1,6.538,5h3.769V5.165l2.535,2.648H13v5.625A0.551,0.551,0,0,1,12.462,14ZM10.308,6.523V7.25a0.551,0.551,0,0,0,.538.563h0.7Zm1.615,2.415H9.769a0.551,0.551,0,0,1-.538-0.562V6.125H7.615a0.551,0.551,0,0,0-.538.563v5.625a0.551,0.551,0,0,0,.538.563h3.769a0.551,0.551,0,0,0,.538-0.562V8.938Z"/>
</svg>
