<svg id="SWITCH" xmlns="http://www.w3.org/2000/svg" width="25" height="28" viewBox="0 0 25 28">
<defs>
    <style>
      .cls-1, .cls-2 {
        fill: #44b5ff;
      }

      .cls-1 {
        fill-rule: evenodd;
      }
    </style>
  </defs>
  <path id="Rounded_Rectangle_33" data-name="Rounded Rectangle 33" fill="#44b5ff" fill-rule="evenodd" d="M18,12H7A5,5,0,0,1,7,2H18A5,5,0,0,1,18,12Zm0-9H7a4,4,0,0,0,0,8H18A4,4,0,0,0,18,3Z"/>
  <circle fill="#44b5ff" cx="8" cy="7" r="3"/>
  <path id="Rounded_Rectangle_33_copy" data-name="Rounded Rectangle 33 copy" fill="#44b5ff" fill-rule="evenodd" d="M18,26H7A5,5,0,0,1,7,16H18A5,5,0,0,1,18,26Zm0-9H7a4,4,0,1,0,0,8H18A4,4,0,0,0,18,17Z"/>
  <circle id="Ellipse_15_copy" data-name="Ellipse 15 copy" fill="#44b5ff" cx="17" cy="21" r="3"/>
</svg>
